<?xml version="1.0" encoding="utf-8" standalone="no"?>
<!DOCTYPE svg PUBLIC "-//W3C//DTD SVG 1.1//EN"
  "http://www.w3.org/Graphics/SVG/1.1/DTD/svg11.dtd">
<svg xmlns:xlink="http://www.w3.org/1999/xlink" width="798.816272pt" height="392.115469pt" viewBox="0 0 798.816272 392.115469" xmlns="http://www.w3.org/2000/svg" version="1.1">
 <metadata>
  <rdf:RDF xmlns:dc="http://purl.org/dc/elements/1.1/" xmlns:cc="http://creativecommons.org/ns#" xmlns:rdf="http://www.w3.org/1999/02/22-rdf-syntax-ns#">
   <cc:Work>
    <dc:type rdf:resource="http://purl.org/dc/dcmitype/StillImage"/>
    <dc:date>2026-03-28T19:31:25.280663</dc:date>
    <dc:format>image/svg+xml</dc:format>
    <dc:creator>
     <cc:Agent>
      <dc:title>Matplotlib v3.10.8, https://matplotlib.org/</dc:title>
     </cc:Agent>
    </dc:creator>
   </cc:Work>
  </rdf:RDF>
 </metadata>
 <defs>
  <style type="text/css">*{stroke-linejoin: round; stroke-linecap: butt}</style>
 </defs>
 <g id="figure_1">
  <g id="patch_1">
   <path d="M 0 392.115469 
L 798.816272 392.115469 
L 798.816272 0 
L 0 0 
L 0 392.115469 
z
" style="fill: none; opacity: 0"/>
  </g>
  <g id="axes_1">
   <g id="patch_2">
    <path d="M 50.651563 248.944186 
L 776.051563 248.944186 
L 776.051563 7.2 
L 50.651563 7.2 
L 50.651563 248.944186 
z
" style="fill: none"/>
   </g>
   <g id="matplotlib.axis_1">
    <g id="xtick_1">
     <g id="line2d_1">
      <defs>
       <path id="m2f638a2316" d="M 0 0 
L 0 3.5 
" style="stroke: #2c241a; stroke-width: 0.8"/>
      </defs>
      <g>
       <use xlink:href="#m2f638a2316" x="64.565504" y="248.944186" style="fill: #2c241a; stroke: #2c241a; stroke-width: 0.8"/>
      </g>
     </g>
    </g>
    <g id="xtick_2">
     <g id="line2d_2">
      <g>
       <use xlink:href="#m2f638a2316" x="133.518267" y="248.944186" style="fill: #2c241a; stroke: #2c241a; stroke-width: 0.8"/>
      </g>
     </g>
    </g>
    <g id="xtick_3">
     <g id="line2d_3">
      <g>
       <use xlink:href="#m2f638a2316" x="204.194849" y="248.944186" style="fill: #2c241a; stroke: #2c241a; stroke-width: 0.8"/>
      </g>
     </g>
    </g>
    <g id="xtick_4">
     <g id="line2d_4">
      <g>
       <use xlink:href="#m2f638a2316" x="274.296824" y="248.944186" style="fill: #2c241a; stroke: #2c241a; stroke-width: 0.8"/>
      </g>
     </g>
    </g>
    <g id="xtick_5">
     <g id="line2d_5">
      <g>
       <use xlink:href="#m2f638a2316" x="343.824193" y="248.944186" style="fill: #2c241a; stroke: #2c241a; stroke-width: 0.8"/>
      </g>
     </g>
    </g>
    <g id="xtick_6">
     <g id="line2d_6">
      <g>
       <use xlink:href="#m2f638a2316" x="414.500775" y="248.944186" style="fill: #2c241a; stroke: #2c241a; stroke-width: 0.8"/>
      </g>
     </g>
    </g>
    <g id="xtick_7">
     <g id="line2d_7">
      <g>
       <use xlink:href="#m2f638a2316" x="484.602751" y="248.944186" style="fill: #2c241a; stroke: #2c241a; stroke-width: 0.8"/>
      </g>
     </g>
    </g>
    <g id="xtick_8">
     <g id="line2d_8">
      <g>
       <use xlink:href="#m2f638a2316" x="553.555513" y="248.944186" style="fill: #2c241a; stroke: #2c241a; stroke-width: 0.8"/>
      </g>
     </g>
    </g>
    <g id="xtick_9">
     <g id="line2d_9">
      <g>
       <use xlink:href="#m2f638a2316" x="624.232095" y="248.944186" style="fill: #2c241a; stroke: #2c241a; stroke-width: 0.8"/>
      </g>
     </g>
    </g>
    <g id="xtick_10">
     <g id="line2d_10">
      <g>
       <use xlink:href="#m2f638a2316" x="694.334071" y="248.944186" style="fill: #2c241a; stroke: #2c241a; stroke-width: 0.8"/>
      </g>
     </g>
    </g>
    <g id="xtick_11">
     <g id="line2d_11">
      <g>
       <use xlink:href="#m2f638a2316" x="763.286834" y="248.944186" style="fill: #2c241a; stroke: #2c241a; stroke-width: 0.8"/>
      </g>
     </g>
    </g>
   </g>
   <g id="matplotlib.axis_2">
    <g id="ytick_1">
     <g id="line2d_12">
      <path d="M 50.651563 248.944186 
L 776.051563 248.944186 
" clip-path="url(#p3cf2f437de)" style="fill: none; stroke: #ded7c8; stroke-opacity: 0.6; stroke-width: 0.5; stroke-linecap: square"/>
     </g>
     <g id="line2d_13">
      <defs>
       <path id="md331cf016a" d="M 0 0 
L -3.5 0 
" style="stroke: #2c241a; stroke-width: 0.8"/>
      </defs>
      <g>
       <use xlink:href="#md331cf016a" x="50.651563" y="248.944186" style="fill: #2c241a; stroke: #2c241a; stroke-width: 0.8"/>
      </g>
     </g>
     <g id="text_1">
      <!-- 0 -->
      <g style="fill: #2c241a" transform="translate(36.71125 252.945436) scale(0.11 -0.11)">
       <defs>
        <path id="Inter-Regular-30" d="M 2019 -63 
Q 1500 -63 1134 218 
Q 769 500 575 1033 
Q 381 1566 381 2325 
Q 381 3081 576 3615 
Q 772 4150 1137 4434 
Q 1503 4719 2019 4719 
Q 2534 4719 2901 4434 
Q 3269 4150 3462 3615 
Q 3656 3081 3656 2325 
Q 3656 1569 3464 1034 
Q 3272 500 2906 218 
Q 2541 -63 2019 -63 
z
M 2019 456 
Q 2359 456 2596 678 
Q 2834 900 2959 1317 
Q 3084 1734 3084 2325 
Q 3084 2919 2959 3339 
Q 2834 3759 2596 3981 
Q 2359 4203 2019 4203 
Q 1678 4203 1440 3979 
Q 1203 3756 1078 3337 
Q 953 2919 953 2325 
Q 953 1734 1078 1317 
Q 1203 900 1440 678 
Q 1678 456 2019 456 
z
" transform="scale(0.015625)"/>
       </defs>
       <use xlink:href="#Inter-Regular-30"/>
      </g>
     </g>
    </g>
    <g id="ytick_2">
     <g id="line2d_14">
      <path d="M 50.651563 217.187971 
L 776.051563 217.187971 
" clip-path="url(#p3cf2f437de)" style="fill: none; stroke: #ded7c8; stroke-opacity: 0.6; stroke-width: 0.5; stroke-linecap: square"/>
     </g>
     <g id="line2d_15">
      <g>
       <use xlink:href="#md331cf016a" x="50.651563" y="217.187971" style="fill: #2c241a; stroke: #2c241a; stroke-width: 0.8"/>
      </g>
     </g>
     <g id="text_2">
      <!-- 100 -->
      <g style="fill: #2c241a" transform="translate(25.297031 221.189221) scale(0.11 -0.11)">
       <defs>
        <path id="Inter-Regular-31" d="M 2041 4656 
L 2041 0 
L 1456 0 
L 1456 4106 
L 1425 4106 
L 300 3272 
L 300 3909 
L 1313 4656 
L 2041 4656 
z
" transform="scale(0.015625)"/>
       </defs>
       <use xlink:href="#Inter-Regular-31"/>
       <use xlink:href="#Inter-Regular-30" transform="translate(40.673828 0)"/>
       <use xlink:href="#Inter-Regular-30" transform="translate(103.759766 0)"/>
      </g>
     </g>
    </g>
    <g id="ytick_3">
     <g id="line2d_16">
      <path d="M 50.651563 185.431756 
L 776.051563 185.431756 
" clip-path="url(#p3cf2f437de)" style="fill: none; stroke: #ded7c8; stroke-opacity: 0.6; stroke-width: 0.5; stroke-linecap: square"/>
     </g>
     <g id="line2d_17">
      <g>
       <use xlink:href="#md331cf016a" x="50.651563" y="185.431756" style="fill: #2c241a; stroke: #2c241a; stroke-width: 0.8"/>
      </g>
     </g>
     <g id="text_3">
      <!-- 200 -->
      <g style="fill: #2c241a" transform="translate(23.062656 189.433006) scale(0.11 -0.11)">
       <defs>
        <path id="Inter-Regular-32" d="M 481 0 
L 481 428 
L 2028 2106 
Q 2288 2388 2459 2600 
Q 2631 2813 2718 3005 
Q 2806 3197 2806 3413 
Q 2806 3656 2690 3834 
Q 2575 4013 2378 4108 
Q 2181 4203 1931 4203 
Q 1666 4203 1470 4095 
Q 1275 3988 1169 3792 
Q 1063 3597 1063 3334 
L 494 3334 
Q 494 3747 684 4059 
Q 875 4372 1203 4545 
Q 1531 4719 1947 4719 
Q 2363 4719 2683 4545 
Q 3003 4372 3186 4078 
Q 3369 3784 3369 3419 
Q 3369 3166 3278 2927 
Q 3188 2688 2959 2384 
Q 2731 2081 2319 1644 
L 1300 559 
L 1300 522 
L 3447 522 
L 3447 0 
L 481 0 
z
" transform="scale(0.015625)"/>
       </defs>
       <use xlink:href="#Inter-Regular-32"/>
       <use xlink:href="#Inter-Regular-30" transform="translate(60.986328 0)"/>
       <use xlink:href="#Inter-Regular-30" transform="translate(124.072266 0)"/>
      </g>
     </g>
    </g>
    <g id="ytick_4">
     <g id="line2d_18">
      <path d="M 50.651563 153.675541 
L 776.051563 153.675541 
" clip-path="url(#p3cf2f437de)" style="fill: none; stroke: #ded7c8; stroke-opacity: 0.6; stroke-width: 0.5; stroke-linecap: square"/>
     </g>
     <g id="line2d_19">
      <g>
       <use xlink:href="#md331cf016a" x="50.651563" y="153.675541" style="fill: #2c241a; stroke: #2c241a; stroke-width: 0.8"/>
      </g>
     </g>
     <g id="text_4">
      <!-- 300 -->
      <g style="fill: #2c241a" transform="translate(22.976719 157.676791) scale(0.11 -0.11)">
       <defs>
        <path id="Inter-Regular-33" d="M 1984 -63 
Q 1528 -63 1175 93 
Q 822 250 614 528 
Q 406 806 391 1175 
L 991 1175 
Q 1009 953 1142 792 
Q 1275 631 1492 545 
Q 1709 459 1975 459 
Q 2269 459 2495 561 
Q 2722 663 2853 847 
Q 2984 1031 2984 1272 
Q 2984 1525 2857 1717 
Q 2731 1909 2490 2018 
Q 2250 2128 1903 2128 
L 1525 2128 
L 1525 2644 
L 1903 2644 
Q 2175 2644 2383 2742 
Q 2591 2841 2706 3019 
Q 2822 3197 2822 3438 
Q 2822 3669 2720 3841 
Q 2619 4013 2431 4108 
Q 2244 4203 1991 4203 
Q 1753 4203 1545 4117 
Q 1338 4031 1205 3872 
Q 1072 3713 1063 3484 
L 491 3484 
Q 503 3850 709 4128 
Q 916 4406 1255 4562 
Q 1594 4719 2003 4719 
Q 2438 4719 2752 4544 
Q 3066 4369 3234 4084 
Q 3403 3800 3403 3469 
Q 3403 3075 3195 2800 
Q 2988 2525 2631 2419 
L 2631 2381 
Q 2928 2334 3139 2181 
Q 3350 2028 3461 1793 
Q 3572 1559 3572 1266 
Q 3572 884 3365 584 
Q 3159 284 2800 110 
Q 2441 -63 1984 -63 
z
" transform="scale(0.015625)"/>
       </defs>
       <use xlink:href="#Inter-Regular-33"/>
       <use xlink:href="#Inter-Regular-30" transform="translate(61.767578 0)"/>
       <use xlink:href="#Inter-Regular-30" transform="translate(124.853516 0)"/>
      </g>
     </g>
    </g>
    <g id="ytick_5">
     <g id="line2d_20">
      <path d="M 50.651563 121.919326 
L 776.051563 121.919326 
" clip-path="url(#p3cf2f437de)" style="fill: none; stroke: #ded7c8; stroke-opacity: 0.6; stroke-width: 0.5; stroke-linecap: square"/>
     </g>
     <g id="line2d_21">
      <g>
       <use xlink:href="#md331cf016a" x="50.651563" y="121.919326" style="fill: #2c241a; stroke: #2c241a; stroke-width: 0.8"/>
      </g>
     </g>
     <g id="text_5">
      <!-- 400 -->
      <g style="fill: #2c241a" transform="translate(22.665625 125.920576) scale(0.11 -0.11)">
       <defs>
        <path id="Inter-Regular-34" d="M 375 947 
L 375 1431 
L 2413 4656 
L 2772 4656 
L 2772 3913 
L 2531 3913 
L 1009 1506 
L 1009 1469 
L 3766 1469 
L 3766 947 
L 375 947 
z
M 2566 0 
L 2566 1091 
L 2569 1319 
L 2569 4656 
L 3134 4656 
L 3134 0 
L 2566 0 
z
" transform="scale(0.015625)"/>
       </defs>
       <use xlink:href="#Inter-Regular-34"/>
       <use xlink:href="#Inter-Regular-30" transform="translate(64.599609 0)"/>
       <use xlink:href="#Inter-Regular-30" transform="translate(127.685547 0)"/>
      </g>
     </g>
    </g>
    <g id="ytick_6">
     <g id="line2d_22">
      <path d="M 50.651563 90.163111 
L 776.051563 90.163111 
" clip-path="url(#p3cf2f437de)" style="fill: none; stroke: #ded7c8; stroke-opacity: 0.6; stroke-width: 0.5; stroke-linecap: square"/>
     </g>
     <g id="line2d_23">
      <g>
       <use xlink:href="#md331cf016a" x="50.651563" y="90.163111" style="fill: #2c241a; stroke: #2c241a; stroke-width: 0.8"/>
      </g>
     </g>
     <g id="text_6">
      <!-- 500 -->
      <g style="fill: #2c241a" transform="translate(23.244844 94.164361) scale(0.11 -0.11)">
       <defs>
        <path id="Inter-Regular-35" d="M 1863 -63 
Q 1453 -63 1128 98 
Q 803 259 609 539 
Q 416 819 400 1175 
L 975 1175 
Q 994 969 1116 806 
Q 1238 644 1433 551 
Q 1628 459 1863 459 
Q 2144 459 2364 590 
Q 2584 722 2709 953 
Q 2834 1184 2834 1478 
Q 2834 1778 2703 2015 
Q 2572 2253 2345 2389 
Q 2119 2525 1825 2525 
Q 1609 2525 1387 2456 
Q 1166 2388 1028 2281 
L 472 2350 
L 747 4656 
L 3197 4656 
L 3197 4134 
L 1247 4134 
L 1088 2775 
L 1113 2775 
Q 1256 2894 1475 2970 
Q 1694 3047 1934 3047 
Q 2253 3047 2523 2931 
Q 2794 2816 2994 2605 
Q 3194 2394 3305 2109 
Q 3416 1825 3416 1488 
Q 3416 1041 3214 691 
Q 3013 341 2663 139 
Q 2313 -63 1863 -63 
z
" transform="scale(0.015625)"/>
       </defs>
       <use xlink:href="#Inter-Regular-35"/>
       <use xlink:href="#Inter-Regular-30" transform="translate(59.326172 0)"/>
       <use xlink:href="#Inter-Regular-30" transform="translate(122.412109 0)"/>
      </g>
     </g>
    </g>
    <g id="ytick_7">
     <g id="line2d_24">
      <path d="M 50.651563 58.406897 
L 776.051563 58.406897 
" clip-path="url(#p3cf2f437de)" style="fill: none; stroke: #ded7c8; stroke-opacity: 0.6; stroke-width: 0.5; stroke-linecap: square"/>
     </g>
     <g id="line2d_25">
      <g>
       <use xlink:href="#md331cf016a" x="50.651563" y="58.406897" style="fill: #2c241a; stroke: #2c241a; stroke-width: 0.8"/>
      </g>
     </g>
     <g id="text_7">
      <!-- 600 -->
      <g style="fill: #2c241a" transform="translate(22.949219 62.408147) scale(0.11 -0.11)">
       <defs>
        <path id="Inter-Regular-36" d="M 2019 -63 
Q 1728 -63 1437 43 
Q 1147 150 908 400 
Q 669 650 525 1078 
Q 381 1506 381 2150 
Q 381 2766 498 3242 
Q 616 3719 839 4048 
Q 1063 4378 1378 4548 
Q 1694 4719 2091 4719 
Q 2481 4719 2790 4562 
Q 3100 4406 3297 4128 
Q 3494 3850 3550 3484 
L 2969 3484 
Q 2891 3788 2672 3991 
Q 2453 4194 2091 4194 
Q 1734 4194 1476 3984 
Q 1219 3775 1081 3379 
Q 944 2984 944 2425 
L 981 2425 
Q 1106 2619 1281 2758 
Q 1456 2897 1672 2970 
Q 1888 3044 2128 3044 
Q 2528 3044 2859 2847 
Q 3191 2650 3389 2301 
Q 3588 1953 3588 1503 
Q 3588 1069 3394 714 
Q 3200 359 2847 148 
Q 2494 -63 2019 -63 
z
M 2019 459 
Q 2300 459 2525 600 
Q 2750 741 2881 977 
Q 3013 1213 3013 1503 
Q 3013 1788 2886 2020 
Q 2759 2253 2537 2390 
Q 2316 2528 2034 2528 
Q 1822 2528 1639 2445 
Q 1456 2363 1318 2217 
Q 1181 2072 1104 1886 
Q 1028 1700 1028 1497 
Q 1028 1222 1156 986 
Q 1284 750 1509 604 
Q 1734 459 2019 459 
z
" transform="scale(0.015625)"/>
       </defs>
       <use xlink:href="#Inter-Regular-36"/>
       <use xlink:href="#Inter-Regular-30" transform="translate(62.011719 0)"/>
       <use xlink:href="#Inter-Regular-30" transform="translate(125.097656 0)"/>
      </g>
     </g>
    </g>
    <g id="ytick_8">
     <g id="line2d_26">
      <path d="M 50.651563 26.650682 
L 776.051563 26.650682 
" clip-path="url(#p3cf2f437de)" style="fill: none; stroke: #ded7c8; stroke-opacity: 0.6; stroke-width: 0.5; stroke-linecap: square"/>
     </g>
     <g id="line2d_27">
      <g>
       <use xlink:href="#md331cf016a" x="50.651563" y="26.650682" style="fill: #2c241a; stroke: #2c241a; stroke-width: 0.8"/>
      </g>
     </g>
     <g id="text_8">
      <!-- 700 -->
      <g style="fill: #2c241a" transform="translate(23.545625 30.651932) scale(0.11 -0.11)">
       <defs>
        <path id="Inter-Regular-37" d="M 625 0 
L 2694 4097 
L 2694 4134 
L 306 4134 
L 306 4656 
L 3316 4656 
L 3316 4103 
L 1250 0 
L 625 0 
z
" transform="scale(0.015625)"/>
       </defs>
       <use xlink:href="#Inter-Regular-37"/>
       <use xlink:href="#Inter-Regular-30" transform="translate(56.591797 0)"/>
       <use xlink:href="#Inter-Regular-30" transform="translate(119.677734 0)"/>
      </g>
     </g>
    </g>
    <g id="text_9">
     <!-- Cumulative stars observed -->
     <g style="fill: #2c241a" transform="translate(16.216875 203.953343) rotate(-90) scale(0.12 -0.12)">
      <defs>
       <path id="Inter-Regular-43" d="M 2447 -63 
Q 1850 -63 1383 226 
Q 916 516 648 1052 
Q 381 1588 381 2325 
Q 381 3066 648 3602 
Q 916 4138 1383 4428 
Q 1850 4719 2447 4719 
Q 2800 4719 3114 4616 
Q 3428 4513 3678 4314 
Q 3928 4116 4095 3833 
Q 4263 3550 4325 3191 
L 3731 3191 
Q 3681 3431 3561 3612 
Q 3441 3794 3267 3919 
Q 3094 4044 2884 4106 
Q 2675 4169 2447 4169 
Q 2028 4169 1690 3956 
Q 1353 3744 1156 3333 
Q 959 2922 959 2325 
Q 959 1731 1157 1320 
Q 1356 909 1693 698 
Q 2031 488 2447 488 
Q 2675 488 2884 552 
Q 3094 616 3267 739 
Q 3441 863 3561 1045 
Q 3681 1228 3731 1466 
L 4325 1466 
Q 4266 1109 4098 828 
Q 3931 547 3681 347 
Q 3431 147 3117 42 
Q 2803 -63 2447 -63 
z
" transform="scale(0.015625)"/>
       <path id="Inter-Regular-75" d="M 1678 -44 
Q 1325 -44 1058 101 
Q 791 247 642 540 
Q 494 834 494 1275 
L 494 3494 
L 1056 3494 
L 1056 1322 
Q 1056 919 1268 691 
Q 1481 463 1847 463 
Q 2097 463 2295 572 
Q 2494 681 2609 892 
Q 2725 1103 2725 1400 
L 2725 3494 
L 3291 3494 
L 3291 0 
L 2747 0 
L 2747 847 
L 2822 847 
Q 2659 356 2361 156 
Q 2063 -44 1678 -44 
z
" transform="scale(0.015625)"/>
       <path id="Inter-Regular-6d" d="M 494 0 
L 494 3494 
L 1041 3494 
L 1044 2713 
L 1000 2713 
Q 1072 2997 1226 3183 
Q 1381 3369 1589 3462 
Q 1797 3556 2022 3556 
Q 2403 3556 2639 3322 
Q 2875 3088 2944 2706 
L 2869 2706 
Q 2931 2969 3097 3159 
Q 3263 3350 3498 3453 
Q 3734 3556 4013 3556 
Q 4316 3556 4566 3425 
Q 4816 3294 4964 3028 
Q 5113 2763 5113 2356 
L 5113 0 
L 4550 0 
L 4550 2341 
Q 4550 2719 4337 2881 
Q 4125 3044 3844 3044 
Q 3609 3044 3439 2945 
Q 3269 2847 3176 2675 
Q 3084 2503 3084 2281 
L 3084 0 
L 2522 0 
L 2522 2397 
Q 2522 2688 2328 2866 
Q 2134 3044 1838 3044 
Q 1634 3044 1454 2948 
Q 1275 2853 1165 2665 
Q 1056 2478 1056 2200 
L 1056 0 
L 494 0 
z
" transform="scale(0.015625)"/>
       <path id="Inter-Regular-6c" d="M 1056 4656 
L 1056 0 
L 494 0 
L 494 4656 
L 1056 4656 
z
" transform="scale(0.015625)"/>
       <path id="Inter-Regular-61" d="M 1472 -81 
Q 1141 -81 870 44 
Q 600 169 440 409 
Q 281 650 281 994 
Q 281 1294 400 1481 
Q 519 1669 717 1776 
Q 916 1884 1156 1937 
Q 1397 1991 1641 2022 
Q 1953 2063 2150 2084 
Q 2347 2106 2442 2159 
Q 2538 2213 2538 2341 
L 2538 2359 
Q 2538 2578 2456 2729 
Q 2375 2881 2212 2962 
Q 2050 3044 1806 3044 
Q 1556 3044 1378 2966 
Q 1200 2888 1089 2770 
Q 978 2653 922 2531 
L 381 2709 
Q 516 3028 744 3208 
Q 972 3388 1247 3463 
Q 1522 3538 1791 3538 
Q 1966 3538 2189 3495 
Q 2413 3453 2620 3328 
Q 2828 3203 2964 2958 
Q 3100 2713 3100 2303 
L 3100 0 
L 2547 0 
L 2547 475 
L 2509 475 
Q 2450 353 2319 223 
Q 2188 94 1978 6 
Q 1769 -81 1472 -81 
z
M 1569 416 
Q 1881 416 2097 537 
Q 2313 659 2425 854 
Q 2538 1050 2538 1263 
L 2538 1747 
Q 2503 1706 2387 1673 
Q 2272 1641 2123 1616 
Q 1975 1591 1836 1573 
Q 1697 1556 1616 1547 
Q 1413 1522 1236 1461 
Q 1059 1400 953 1283 
Q 847 1166 847 966 
Q 847 784 940 662 
Q 1034 541 1196 478 
Q 1359 416 1569 416 
z
" transform="scale(0.015625)"/>
       <path id="Inter-Regular-74" d="M 1869 3494 
L 1869 3013 
L 63 3013 
L 63 3494 
L 1869 3494 
z
M 588 4325 
L 1150 4325 
L 1150 906 
Q 1150 672 1245 564 
Q 1341 456 1563 456 
Q 1616 456 1698 468 
Q 1781 481 1850 494 
L 1966 19 
Q 1878 -13 1767 -28 
Q 1656 -44 1547 -44 
Q 1094 -44 841 195 
Q 588 434 588 863 
L 588 4325 
z
" transform="scale(0.015625)"/>
       <path id="Inter-Regular-69" d="M 494 0 
L 494 3494 
L 1056 3494 
L 1056 0 
L 494 0 
z
M 778 4066 
Q 619 4066 503 4175 
Q 388 4284 388 4438 
Q 388 4594 503 4701 
Q 619 4809 778 4809 
Q 941 4809 1056 4701 
Q 1172 4594 1172 4438 
Q 1172 4284 1056 4175 
Q 941 4066 778 4066 
z
" transform="scale(0.015625)"/>
       <path id="Inter-Regular-76" d="M 1503 0 
L 169 3494 
L 784 3494 
L 1528 1422 
Q 1647 1100 1730 779 
Q 1813 459 1903 159 
L 1697 159 
Q 1788 459 1870 779 
Q 1953 1100 2069 1422 
L 2813 3494 
L 3428 3494 
L 2094 0 
L 1503 0 
z
" transform="scale(0.015625)"/>
       <path id="Inter-Regular-65" d="M 1963 -75 
Q 1456 -75 1089 150 
Q 722 375 523 778 
Q 325 1181 325 1719 
Q 325 2256 519 2665 
Q 713 3075 1067 3306 
Q 1422 3538 1897 3538 
Q 2175 3538 2445 3445 
Q 2716 3353 2936 3148 
Q 3156 2944 3287 2609 
Q 3419 2275 3419 1791 
L 3419 1556 
L 706 1556 
L 706 2031 
L 3116 2031 
L 2853 1856 
Q 2853 2200 2745 2467 
Q 2638 2734 2425 2886 
Q 2213 3038 1897 3038 
Q 1581 3038 1356 2883 
Q 1131 2728 1012 2479 
Q 894 2231 894 1947 
L 894 1631 
Q 894 1244 1028 973 
Q 1163 703 1405 564 
Q 1647 425 1966 425 
Q 2172 425 2340 484 
Q 2509 544 2631 664 
Q 2753 784 2819 963 
L 3363 813 
Q 3281 550 3087 350 
Q 2894 150 2608 37 
Q 2322 -75 1963 -75 
z
" transform="scale(0.015625)"/>
       <path id="Inter-Regular-20" transform="scale(0.015625)"/>
       <path id="Inter-Regular-73" d="M 1681 -75 
Q 1322 -75 1042 29 
Q 763 134 581 340 
Q 400 547 338 847 
L 872 975 
Q 947 688 1155 553 
Q 1363 419 1675 419 
Q 2041 419 2258 575 
Q 2475 731 2475 947 
Q 2475 1128 2348 1248 
Q 2222 1369 1963 1428 
L 1381 1566 
Q 906 1678 675 1914 
Q 444 2150 444 2519 
Q 444 2819 612 3048 
Q 781 3278 1073 3408 
Q 1366 3538 1738 3538 
Q 2097 3538 2348 3430 
Q 2600 3322 2758 3133 
Q 2916 2944 2994 2697 
L 2484 2566 
Q 2413 2753 2245 2906 
Q 2078 3059 1741 3059 
Q 1428 3059 1220 2915 
Q 1013 2772 1013 2553 
Q 1013 2359 1153 2242 
Q 1294 2125 1600 2053 
L 2128 1928 
Q 2603 1816 2831 1580 
Q 3059 1344 3059 984 
Q 3059 678 2886 439 
Q 2713 200 2402 62 
Q 2091 -75 1681 -75 
z
" transform="scale(0.015625)"/>
       <path id="Inter-Regular-72" d="M 494 0 
L 494 3494 
L 1038 3494 
L 1038 2956 
L 1075 2956 
Q 1172 3222 1420 3383 
Q 1669 3544 1981 3544 
Q 2044 3544 2130 3541 
Q 2216 3538 2266 3534 
L 2266 2969 
Q 2241 2975 2141 2987 
Q 2041 3000 1928 3000 
Q 1678 3000 1479 2895 
Q 1281 2791 1168 2608 
Q 1056 2425 1056 2188 
L 1056 0 
L 494 0 
z
" transform="scale(0.015625)"/>
       <path id="Inter-Regular-6f" d="M 1916 -75 
Q 1441 -75 1083 150 
Q 725 375 525 781 
Q 325 1188 325 1725 
Q 325 2272 525 2680 
Q 725 3088 1083 3313 
Q 1441 3538 1916 3538 
Q 2394 3538 2753 3313 
Q 3113 3088 3313 2680 
Q 3513 2272 3513 1725 
Q 3513 1188 3313 781 
Q 3113 375 2753 150 
Q 2394 -75 1916 -75 
z
M 1916 428 
Q 2269 428 2497 609 
Q 2725 791 2834 1086 
Q 2944 1381 2944 1725 
Q 2944 2072 2834 2370 
Q 2725 2669 2497 2851 
Q 2269 3034 1916 3034 
Q 1566 3034 1341 2851 
Q 1116 2669 1006 2372 
Q 897 2075 897 1725 
Q 897 1381 1006 1086 
Q 1116 791 1341 609 
Q 1566 428 1916 428 
z
" transform="scale(0.015625)"/>
       <path id="Inter-Regular-62" d="M 2116 -75 
Q 1784 -75 1581 39 
Q 1378 153 1268 298 
Q 1159 444 1100 541 
L 1038 541 
L 1038 0 
L 494 0 
L 494 4656 
L 1056 4656 
L 1056 2934 
L 1100 2934 
Q 1159 3028 1265 3170 
Q 1372 3313 1572 3425 
Q 1772 3538 2113 3538 
Q 2550 3538 2883 3319 
Q 3216 3100 3405 2695 
Q 3594 2291 3594 1738 
Q 3594 1181 3406 775 
Q 3219 369 2886 147 
Q 2553 -75 2116 -75 
z
M 2031 428 
Q 2359 428 2579 604 
Q 2800 781 2911 1079 
Q 3022 1378 3022 1744 
Q 3022 2106 2912 2398 
Q 2803 2691 2583 2862 
Q 2363 3034 2031 3034 
Q 1709 3034 1490 2871 
Q 1272 2709 1161 2420 
Q 1050 2131 1050 1744 
Q 1050 1356 1162 1059 
Q 1275 763 1495 595 
Q 1716 428 2031 428 
z
" transform="scale(0.015625)"/>
       <path id="Inter-Regular-64" d="M 1803 -75 
Q 1369 -75 1034 147 
Q 700 369 512 775 
Q 325 1181 325 1738 
Q 325 2291 514 2695 
Q 703 3100 1037 3319 
Q 1372 3538 1806 3538 
Q 2147 3538 2347 3425 
Q 2547 3313 2655 3170 
Q 2763 3028 2819 2934 
L 2863 2934 
L 2863 4656 
L 3425 4656 
L 3425 0 
L 2881 0 
L 2881 541 
L 2819 541 
Q 2763 444 2652 298 
Q 2541 153 2339 39 
Q 2138 -75 1803 -75 
z
M 1888 428 
Q 2206 428 2425 595 
Q 2644 763 2756 1059 
Q 2869 1356 2869 1744 
Q 2869 2131 2758 2420 
Q 2647 2709 2428 2871 
Q 2209 3034 1888 3034 
Q 1556 3034 1336 2862 
Q 1116 2691 1006 2398 
Q 897 2106 897 1744 
Q 897 1378 1008 1079 
Q 1119 781 1341 604 
Q 1563 428 1888 428 
z
" transform="scale(0.015625)"/>
      </defs>
      <use xlink:href="#Inter-Regular-43"/>
      <use xlink:href="#Inter-Regular-75" transform="translate(73.046875 0)"/>
      <use xlink:href="#Inter-Regular-6d" transform="translate(132.177734 0)"/>
      <use xlink:href="#Inter-Regular-75" transform="translate(219.775391 0)"/>
      <use xlink:href="#Inter-Regular-6c" transform="translate(278.90625 0)"/>
      <use xlink:href="#Inter-Regular-61" transform="translate(303.125 0)"/>
      <use xlink:href="#Inter-Regular-74" transform="translate(359.277344 0)"/>
      <use xlink:href="#Inter-Regular-69" transform="translate(391.992188 0)"/>
      <use xlink:href="#Inter-Regular-76" transform="translate(416.210938 0)"/>
      <use xlink:href="#Inter-Regular-65" transform="translate(472.412109 0)"/>
      <use xlink:href="#Inter-Regular-20" transform="translate(530.712891 0)"/>
      <use xlink:href="#Inter-Regular-73" transform="translate(558.837891 0)"/>
      <use xlink:href="#Inter-Regular-74" transform="translate(611.621094 0)"/>
      <use xlink:href="#Inter-Regular-61" transform="translate(644.335938 0)"/>
      <use xlink:href="#Inter-Regular-72" transform="translate(700.488281 0)"/>
      <use xlink:href="#Inter-Regular-73" transform="translate(738.134766 0)"/>
      <use xlink:href="#Inter-Regular-20" transform="translate(790.917969 0)"/>
      <use xlink:href="#Inter-Regular-6f" transform="translate(819.042969 0)"/>
      <use xlink:href="#Inter-Regular-62" transform="translate(879.003906 0)"/>
      <use xlink:href="#Inter-Regular-73" transform="translate(940.234375 0)"/>
      <use xlink:href="#Inter-Regular-65" transform="translate(993.017578 0)"/>
      <use xlink:href="#Inter-Regular-72" transform="translate(1051.318359 0)"/>
      <use xlink:href="#Inter-Regular-76" transform="translate(1088.964844 0)"/>
      <use xlink:href="#Inter-Regular-65" transform="translate(1145.166016 0)"/>
      <use xlink:href="#Inter-Regular-64" transform="translate(1203.466797 0)"/>
     </g>
    </g>
   </g>
   <g id="patch_3">
    <path d="M 50.651563 248.944186 
L 50.651563 7.2 
" style="fill: none; stroke: #ded7c8; stroke-width: 0.8; stroke-linejoin: miter; stroke-linecap: square"/>
   </g>
   <g id="patch_4">
    <path d="M 50.651562 248.944186 
L 776.051562 248.944186 
" style="fill: none; stroke: #ded7c8; stroke-width: 0.8; stroke-linejoin: miter; stroke-linecap: square"/>
   </g>
   <g id="patch_5">
    <path d="M 83.62429 248.944186 
L 97.221291 248.944186 
L 97.221291 248.944186 
L 83.62429 248.944186 
z
" clip-path="url(#p3cf2f437de)" style="fill: #b85b3a"/>
   </g>
   <g id="patch_6">
    <path d="M 99.713268 248.944186 
L 113.310269 248.944186 
L 113.310269 248.944186 
L 99.713268 248.944186 
z
" clip-path="url(#p3cf2f437de)" style="fill: #b85b3a"/>
   </g>
   <g id="patch_7">
    <path d="M 117.526065 248.944186 
L 131.123066 248.944186 
L 131.123066 248.944186 
L 117.526065 248.944186 
z
" clip-path="url(#p3cf2f437de)" style="fill: #b85b3a"/>
   </g>
   <g id="patch_8">
    <path d="M 134.764255 248.944186 
L 148.361256 248.944186 
L 148.361256 248.944186 
L 134.764255 248.944186 
z
" clip-path="url(#p3cf2f437de)" style="fill: #b85b3a"/>
   </g>
   <g id="patch_9">
    <path d="M 152.577053 248.944186 
L 166.174053 248.944186 
L 166.174053 238.147073 
L 152.577053 238.147073 
z
" clip-path="url(#p3cf2f437de)" style="fill: #b85b3a"/>
   </g>
   <g id="patch_10">
    <path d="M 169.815243 248.944186 
L 183.412244 248.944186 
L 183.412244 236.876824 
L 169.815243 236.876824 
z
" clip-path="url(#p3cf2f437de)" style="fill: #b85b3a"/>
   </g>
   <g id="patch_11">
    <path d="M 187.62804 248.944186 
L 201.225041 248.944186 
L 201.225041 236.876824 
L 187.62804 236.876824 
z
" clip-path="url(#p3cf2f437de)" style="fill: #b85b3a"/>
   </g>
   <g id="patch_12">
    <path d="M 205.440837 248.944186 
L 219.037838 248.944186 
L 219.037838 236.2417 
L 205.440837 236.2417 
z
" clip-path="url(#p3cf2f437de)" style="fill: #b85b3a"/>
   </g>
   <g id="patch_13">
    <path d="M 222.679028 248.944186 
L 236.276029 248.944186 
L 236.276029 225.127025 
L 222.679028 225.127025 
z
" clip-path="url(#p3cf2f437de)" style="fill: #b85b3a"/>
   </g>
   <g id="patch_14">
    <path d="M 240.491825 248.944186 
L 254.088826 248.944186 
L 254.088826 221.316279 
L 240.491825 221.316279 
z
" clip-path="url(#p3cf2f437de)" style="fill: #b85b3a"/>
   </g>
   <g id="patch_15">
    <path d="M 257.730016 248.944186 
L 271.327017 248.944186 
L 271.327017 219.728468 
L 257.730016 219.728468 
z
" clip-path="url(#p3cf2f437de)" style="fill: #b85b3a"/>
   </g>
   <g id="patch_16">
    <path d="M 275.542813 248.944186 
L 289.139814 248.944186 
L 289.139814 221.951403 
L 275.542813 221.951403 
z
" clip-path="url(#p3cf2f437de)" style="fill: #b85b3a"/>
   </g>
   <g id="patch_17">
    <path d="M 293.35561 248.944186 
L 306.952611 248.944186 
L 306.952611 225.127025 
L 293.35561 225.127025 
z
" clip-path="url(#p3cf2f437de)" style="fill: #b85b3a"/>
   </g>
   <g id="patch_18">
    <path d="M 310.019194 248.944186 
L 323.616195 248.944186 
L 323.616195 223.856776 
L 310.019194 223.856776 
z
" clip-path="url(#p3cf2f437de)" style="fill: #b85b3a"/>
   </g>
   <g id="patch_19">
    <path d="M 327.831991 248.944186 
L 341.428992 248.944186 
L 341.428992 222.586528 
L 327.831991 222.586528 
z
" clip-path="url(#p3cf2f437de)" style="fill: #b85b3a"/>
   </g>
   <g id="patch_20">
    <path d="M 345.070182 248.944186 
L 358.667183 248.944186 
L 358.667183 222.586528 
L 345.070182 222.586528 
z
" clip-path="url(#p3cf2f437de)" style="fill: #b85b3a"/>
   </g>
   <g id="patch_21">
    <path d="M 362.882979 248.944186 
L 376.47998 248.944186 
L 376.47998 209.56648 
L 362.882979 209.56648 
z
" clip-path="url(#p3cf2f437de)" style="fill: #b85b3a"/>
   </g>
   <g id="patch_22">
    <path d="M 380.12117 248.944186 
L 393.718171 248.944186 
L 393.718171 213.059663 
L 380.12117 213.059663 
z
" clip-path="url(#p3cf2f437de)" style="fill: #b85b3a"/>
   </g>
   <g id="patch_23">
    <path d="M 397.933967 248.944186 
L 411.530968 248.944186 
L 411.530968 212.742101 
L 397.933967 212.742101 
z
" clip-path="url(#p3cf2f437de)" style="fill: #b85b3a"/>
   </g>
   <g id="patch_24">
    <path d="M 415.746764 248.944186 
L 429.343765 248.944186 
L 429.343765 215.282598 
L 415.746764 215.282598 
z
" clip-path="url(#p3cf2f437de)" style="fill: #b85b3a"/>
   </g>
   <g id="patch_25">
    <path d="M 432.984954 248.944186 
L 446.581955 248.944186 
L 446.581955 213.059663 
L 432.984954 213.059663 
z
" clip-path="url(#p3cf2f437de)" style="fill: #b85b3a"/>
   </g>
   <g id="patch_26">
    <path d="M 450.797751 248.944186 
L 464.394752 248.944186 
L 464.394752 211.15429 
L 450.797751 211.15429 
z
" clip-path="url(#p3cf2f437de)" style="fill: #b85b3a"/>
   </g>
   <g id="patch_27">
    <path d="M 468.035942 248.944186 
L 481.632943 248.944186 
L 481.632943 208.296231 
L 468.035942 208.296231 
z
" clip-path="url(#p3cf2f437de)" style="fill: #b85b3a"/>
   </g>
   <g id="patch_28">
    <path d="M 485.848739 248.944186 
L 499.44574 248.944186 
L 499.44574 189.560064 
L 485.848739 189.560064 
z
" clip-path="url(#p3cf2f437de)" style="fill: #b85b3a"/>
   </g>
   <g id="patch_29">
    <path d="M 503.661536 248.944186 
L 517.258537 248.944186 
L 517.258537 185.749318 
L 503.661536 185.749318 
z
" clip-path="url(#p3cf2f437de)" style="fill: #b85b3a"/>
   </g>
   <g id="patch_30">
    <path d="M 519.750514 248.944186 
L 533.347515 248.944186 
L 533.347515 204.803047 
L 519.750514 204.803047 
z
" clip-path="url(#p3cf2f437de)" style="fill: #b85b3a"/>
   </g>
   <g id="patch_31">
    <path d="M 537.563311 248.944186 
L 551.160312 248.944186 
L 551.160312 202.580112 
L 537.563311 202.580112 
z
" clip-path="url(#p3cf2f437de)" style="fill: #b85b3a"/>
   </g>
   <g id="patch_32">
    <path d="M 554.801502 248.944186 
L 568.398503 248.944186 
L 568.398503 197.499118 
L 554.801502 197.499118 
z
" clip-path="url(#p3cf2f437de)" style="fill: #b85b3a"/>
   </g>
   <g id="patch_33">
    <path d="M 572.614299 248.944186 
L 586.2113 248.944186 
L 586.2113 198.134242 
L 572.614299 198.134242 
z
" clip-path="url(#p3cf2f437de)" style="fill: #b85b3a"/>
   </g>
   <g id="patch_34">
    <path d="M 589.85249 248.944186 
L 603.449491 248.944186 
L 603.449491 200.992302 
L 589.85249 200.992302 
z
" clip-path="url(#p3cf2f437de)" style="fill: #b85b3a"/>
   </g>
   <g id="patch_35">
    <path d="M 607.665287 248.944186 
L 621.262288 248.944186 
L 621.262288 201.309864 
L 607.665287 201.309864 
z
" clip-path="url(#p3cf2f437de)" style="fill: #b85b3a"/>
   </g>
   <g id="patch_36">
    <path d="M 625.478084 248.944186 
L 639.075085 248.944186 
L 639.075085 200.992302 
L 625.478084 200.992302 
z
" clip-path="url(#p3cf2f437de)" style="fill: #b85b3a"/>
   </g>
   <g id="patch_37">
    <path d="M 642.716274 248.944186 
L 656.313275 248.944186 
L 656.313275 200.039615 
L 642.716274 200.039615 
z
" clip-path="url(#p3cf2f437de)" style="fill: #b85b3a"/>
   </g>
   <g id="patch_38">
    <path d="M 660.529072 248.944186 
L 674.126072 248.944186 
L 674.126072 200.357177 
L 660.529072 200.357177 
z
" clip-path="url(#p3cf2f437de)" style="fill: #b85b3a"/>
   </g>
   <g id="patch_39">
    <path d="M 677.767262 248.944186 
L 691.364263 248.944186 
L 691.364263 199.722053 
L 677.767262 199.722053 
z
" clip-path="url(#p3cf2f437de)" style="fill: #b85b3a"/>
   </g>
   <g id="patch_40">
    <path d="M 695.580059 248.944186 
L 709.17706 248.944186 
L 709.17706 194.005934 
L 695.580059 194.005934 
z
" clip-path="url(#p3cf2f437de)" style="fill: #b85b3a"/>
   </g>
   <g id="patch_41">
    <path d="M 713.392856 248.944186 
L 726.989857 248.944186 
L 726.989857 192.735686 
L 713.392856 192.735686 
z
" clip-path="url(#p3cf2f437de)" style="fill: #b85b3a"/>
   </g>
   <g id="patch_42">
    <path d="M 729.481834 248.944186 
L 743.078835 248.944186 
L 743.078835 191.465437 
L 729.481834 191.465437 
z
" clip-path="url(#p3cf2f437de)" style="fill: #b85b3a"/>
   </g>
   <g id="patch_43">
    <path d="M 83.62429 248.944186 
L 97.221291 248.944186 
L 97.221291 248.944186 
L 83.62429 248.944186 
z
" clip-path="url(#p3cf2f437de)" style="fill: #4a78a8"/>
   </g>
   <g id="patch_44">
    <path d="M 99.713268 248.944186 
L 113.310269 248.944186 
L 113.310269 248.944186 
L 99.713268 248.944186 
z
" clip-path="url(#p3cf2f437de)" style="fill: #4a78a8"/>
   </g>
   <g id="patch_45">
    <path d="M 117.526065 248.944186 
L 131.123066 248.944186 
L 131.123066 248.944186 
L 117.526065 248.944186 
z
" clip-path="url(#p3cf2f437de)" style="fill: #4a78a8"/>
   </g>
   <g id="patch_46">
    <path d="M 134.764255 248.944186 
L 148.361256 248.944186 
L 148.361256 248.944186 
L 134.764255 248.944186 
z
" clip-path="url(#p3cf2f437de)" style="fill: #4a78a8"/>
   </g>
   <g id="patch_47">
    <path d="M 152.577053 238.147073 
L 166.174053 238.147073 
L 166.174053 238.147073 
L 152.577053 238.147073 
z
" clip-path="url(#p3cf2f437de)" style="fill: #4a78a8"/>
   </g>
   <g id="patch_48">
    <path d="M 169.815243 236.876824 
L 183.412244 236.876824 
L 183.412244 236.876824 
L 169.815243 236.876824 
z
" clip-path="url(#p3cf2f437de)" style="fill: #4a78a8"/>
   </g>
   <g id="patch_49">
    <path d="M 187.62804 236.876824 
L 201.225041 236.876824 
L 201.225041 236.559262 
L 187.62804 236.559262 
z
" clip-path="url(#p3cf2f437de)" style="fill: #4a78a8"/>
   </g>
   <g id="patch_50">
    <path d="M 205.440837 236.2417 
L 219.037838 236.2417 
L 219.037838 235.924138 
L 205.440837 235.924138 
z
" clip-path="url(#p3cf2f437de)" style="fill: #4a78a8"/>
   </g>
   <g id="patch_51">
    <path d="M 222.679028 225.127025 
L 236.276029 225.127025 
L 236.276029 224.174338 
L 222.679028 224.174338 
z
" clip-path="url(#p3cf2f437de)" style="fill: #4a78a8"/>
   </g>
   <g id="patch_52">
    <path d="M 240.491825 221.316279 
L 254.088826 221.316279 
L 254.088826 220.04603 
L 240.491825 220.04603 
z
" clip-path="url(#p3cf2f437de)" style="fill: #4a78a8"/>
   </g>
   <g id="patch_53">
    <path d="M 257.730016 219.728468 
L 271.327017 219.728468 
L 271.327017 215.282598 
L 257.730016 215.282598 
z
" clip-path="url(#p3cf2f437de)" style="fill: #4a78a8"/>
   </g>
   <g id="patch_54">
    <path d="M 275.542813 221.951403 
L 289.139814 221.951403 
L 289.139814 209.248917 
L 275.542813 209.248917 
z
" clip-path="url(#p3cf2f437de)" style="fill: #4a78a8"/>
   </g>
   <g id="patch_55">
    <path d="M 293.35561 225.127025 
L 306.952611 225.127025 
L 306.952611 209.248917 
L 293.35561 209.248917 
z
" clip-path="url(#p3cf2f437de)" style="fill: #4a78a8"/>
   </g>
   <g id="patch_56">
    <path d="M 310.019194 223.856776 
L 323.616195 223.856776 
L 323.616195 207.661107 
L 310.019194 207.661107 
z
" clip-path="url(#p3cf2f437de)" style="fill: #4a78a8"/>
   </g>
   <g id="patch_57">
    <path d="M 327.831991 222.586528 
L 341.428992 222.586528 
L 341.428992 206.073296 
L 327.831991 206.073296 
z
" clip-path="url(#p3cf2f437de)" style="fill: #4a78a8"/>
   </g>
   <g id="patch_58">
    <path d="M 345.070182 222.586528 
L 358.667183 222.586528 
L 358.667183 206.073296 
L 345.070182 206.073296 
z
" clip-path="url(#p3cf2f437de)" style="fill: #4a78a8"/>
   </g>
   <g id="patch_59">
    <path d="M 362.882979 209.56648 
L 376.47998 209.56648 
L 376.47998 189.242502 
L 362.882979 189.242502 
z
" clip-path="url(#p3cf2f437de)" style="fill: #4a78a8"/>
   </g>
   <g id="patch_60">
    <path d="M 380.12117 213.059663 
L 393.718171 213.059663 
L 393.718171 170.188773 
L 380.12117 170.188773 
z
" clip-path="url(#p3cf2f437de)" style="fill: #4a78a8"/>
   </g>
   <g id="patch_61">
    <path d="M 397.933967 212.742101 
L 411.530968 212.742101 
L 411.530968 161.932157 
L 397.933967 161.932157 
z
" clip-path="url(#p3cf2f437de)" style="fill: #4a78a8"/>
   </g>
   <g id="patch_62">
    <path d="M 415.746764 215.282598 
L 429.343765 215.282598 
L 429.343765 163.83753 
L 415.746764 163.83753 
z
" clip-path="url(#p3cf2f437de)" style="fill: #4a78a8"/>
   </g>
   <g id="patch_63">
    <path d="M 432.984954 213.059663 
L 446.581955 213.059663 
L 446.581955 161.614595 
L 432.984954 161.614595 
z
" clip-path="url(#p3cf2f437de)" style="fill: #4a78a8"/>
   </g>
   <g id="patch_64">
    <path d="M 450.797751 211.15429 
L 464.394752 211.15429 
L 464.394752 160.661909 
L 450.797751 160.661909 
z
" clip-path="url(#p3cf2f437de)" style="fill: #4a78a8"/>
   </g>
   <g id="patch_65">
    <path d="M 468.035942 208.296231 
L 481.632943 208.296231 
L 481.632943 151.452606 
L 468.035942 151.452606 
z
" clip-path="url(#p3cf2f437de)" style="fill: #4a78a8"/>
   </g>
   <g id="patch_66">
    <path d="M 485.848739 189.560064 
L 499.44574 189.560064 
L 499.44574 125.41251 
L 485.848739 125.41251 
z
" clip-path="url(#p3cf2f437de)" style="fill: #4a78a8"/>
   </g>
   <g id="patch_67">
    <path d="M 503.661536 185.749318 
L 517.258537 185.749318 
L 517.258537 119.378829 
L 503.661536 119.378829 
z
" clip-path="url(#p3cf2f437de)" style="fill: #4a78a8"/>
   </g>
   <g id="patch_68">
    <path d="M 519.750514 204.803047 
L 533.347515 204.803047 
L 533.347515 112.392462 
L 519.750514 112.392462 
z
" clip-path="url(#p3cf2f437de)" style="fill: #4a78a8"/>
   </g>
   <g id="patch_69">
    <path d="M 537.563311 202.580112 
L 551.160312 202.580112 
L 551.160312 127.635445 
L 537.563311 127.635445 
z
" clip-path="url(#p3cf2f437de)" style="fill: #4a78a8"/>
   </g>
   <g id="patch_70">
    <path d="M 554.801502 197.499118 
L 568.398503 197.499118 
L 568.398503 122.236889 
L 554.801502 122.236889 
z
" clip-path="url(#p3cf2f437de)" style="fill: #4a78a8"/>
   </g>
   <g id="patch_71">
    <path d="M 572.614299 198.134242 
L 586.2113 198.134242 
L 586.2113 117.791018 
L 572.614299 117.791018 
z
" clip-path="url(#p3cf2f437de)" style="fill: #4a78a8"/>
   </g>
   <g id="patch_72">
    <path d="M 589.85249 200.992302 
L 603.449491 200.992302 
L 603.449491 114.932959 
L 589.85249 114.932959 
z
" clip-path="url(#p3cf2f437de)" style="fill: #4a78a8"/>
   </g>
   <g id="patch_73">
    <path d="M 607.665287 201.309864 
L 621.262288 201.309864 
L 621.262288 111.122213 
L 607.665287 111.122213 
z
" clip-path="url(#p3cf2f437de)" style="fill: #4a78a8"/>
   </g>
   <g id="patch_74">
    <path d="M 625.478084 200.992302 
L 639.075085 200.992302 
L 639.075085 110.804651 
L 625.478084 110.804651 
z
" clip-path="url(#p3cf2f437de)" style="fill: #4a78a8"/>
   </g>
   <g id="patch_75">
    <path d="M 642.716274 200.039615 
L 656.313275 200.039615 
L 656.313275 111.439775 
L 642.716274 111.439775 
z
" clip-path="url(#p3cf2f437de)" style="fill: #4a78a8"/>
   </g>
   <g id="patch_76">
    <path d="M 660.529072 200.357177 
L 674.126072 200.357177 
L 674.126072 112.0749 
L 660.529072 112.0749 
z
" clip-path="url(#p3cf2f437de)" style="fill: #4a78a8"/>
   </g>
   <g id="patch_77">
    <path d="M 677.767262 199.722053 
L 691.364263 199.722053 
L 691.364263 110.804651 
L 677.767262 110.804651 
z
" clip-path="url(#p3cf2f437de)" style="fill: #4a78a8"/>
   </g>
   <g id="patch_78">
    <path d="M 695.580059 194.005934 
L 709.17706 194.005934 
L 709.17706 103.500722 
L 695.580059 103.500722 
z
" clip-path="url(#p3cf2f437de)" style="fill: #4a78a8"/>
   </g>
   <g id="patch_79">
    <path d="M 713.392856 192.735686 
L 726.989857 192.735686 
L 726.989857 102.230473 
L 713.392856 102.230473 
z
" clip-path="url(#p3cf2f437de)" style="fill: #4a78a8"/>
   </g>
   <g id="patch_80">
    <path d="M 729.481834 191.465437 
L 743.078835 191.465437 
L 743.078835 101.277787 
L 729.481834 101.277787 
z
" clip-path="url(#p3cf2f437de)" style="fill: #4a78a8"/>
   </g>
   <g id="patch_81">
    <path d="M 83.62429 248.944186 
L 97.221291 248.944186 
L 97.221291 248.944186 
L 83.62429 248.944186 
z
" clip-path="url(#p3cf2f437de)" style="fill: #558b44"/>
   </g>
   <g id="patch_82">
    <path d="M 99.713268 248.944186 
L 113.310269 248.944186 
L 113.310269 248.944186 
L 99.713268 248.944186 
z
" clip-path="url(#p3cf2f437de)" style="fill: #558b44"/>
   </g>
   <g id="patch_83">
    <path d="M 117.526065 248.944186 
L 131.123066 248.944186 
L 131.123066 248.944186 
L 117.526065 248.944186 
z
" clip-path="url(#p3cf2f437de)" style="fill: #558b44"/>
   </g>
   <g id="patch_84">
    <path d="M 134.764255 248.944186 
L 148.361256 248.944186 
L 148.361256 248.944186 
L 134.764255 248.944186 
z
" clip-path="url(#p3cf2f437de)" style="fill: #558b44"/>
   </g>
   <g id="patch_85">
    <path d="M 152.577053 238.147073 
L 166.174053 238.147073 
L 166.174053 238.147073 
L 152.577053 238.147073 
z
" clip-path="url(#p3cf2f437de)" style="fill: #558b44"/>
   </g>
   <g id="patch_86">
    <path d="M 169.815243 236.876824 
L 183.412244 236.876824 
L 183.412244 236.876824 
L 169.815243 236.876824 
z
" clip-path="url(#p3cf2f437de)" style="fill: #558b44"/>
   </g>
   <g id="patch_87">
    <path d="M 187.62804 236.559262 
L 201.225041 236.559262 
L 201.225041 236.559262 
L 187.62804 236.559262 
z
" clip-path="url(#p3cf2f437de)" style="fill: #558b44"/>
   </g>
   <g id="patch_88">
    <path d="M 205.440837 235.924138 
L 219.037838 235.924138 
L 219.037838 235.924138 
L 205.440837 235.924138 
z
" clip-path="url(#p3cf2f437de)" style="fill: #558b44"/>
   </g>
   <g id="patch_89">
    <path d="M 222.679028 224.174338 
L 236.276029 224.174338 
L 236.276029 224.174338 
L 222.679028 224.174338 
z
" clip-path="url(#p3cf2f437de)" style="fill: #558b44"/>
   </g>
   <g id="patch_90">
    <path d="M 240.491825 220.04603 
L 254.088826 220.04603 
L 254.088826 220.04603 
L 240.491825 220.04603 
z
" clip-path="url(#p3cf2f437de)" style="fill: #558b44"/>
   </g>
   <g id="patch_91">
    <path d="M 257.730016 215.282598 
L 271.327017 215.282598 
L 271.327017 215.282598 
L 257.730016 215.282598 
z
" clip-path="url(#p3cf2f437de)" style="fill: #558b44"/>
   </g>
   <g id="patch_92">
    <path d="M 275.542813 209.248917 
L 289.139814 209.248917 
L 289.139814 208.931355 
L 275.542813 208.931355 
z
" clip-path="url(#p3cf2f437de)" style="fill: #558b44"/>
   </g>
   <g id="patch_93">
    <path d="M 293.35561 209.248917 
L 306.952611 209.248917 
L 306.952611 208.931355 
L 293.35561 208.931355 
z
" clip-path="url(#p3cf2f437de)" style="fill: #558b44"/>
   </g>
   <g id="patch_94">
    <path d="M 310.019194 207.661107 
L 323.616195 207.661107 
L 323.616195 207.343545 
L 310.019194 207.343545 
z
" clip-path="url(#p3cf2f437de)" style="fill: #558b44"/>
   </g>
   <g id="patch_95">
    <path d="M 327.831991 206.073296 
L 341.428992 206.073296 
L 341.428992 205.755734 
L 327.831991 205.755734 
z
" clip-path="url(#p3cf2f437de)" style="fill: #558b44"/>
   </g>
   <g id="patch_96">
    <path d="M 345.070182 206.073296 
L 358.667183 206.073296 
L 358.667183 205.755734 
L 345.070182 205.755734 
z
" clip-path="url(#p3cf2f437de)" style="fill: #558b44"/>
   </g>
   <g id="patch_97">
    <path d="M 362.882979 189.242502 
L 376.47998 189.242502 
L 376.47998 188.92494 
L 362.882979 188.92494 
z
" clip-path="url(#p3cf2f437de)" style="fill: #558b44"/>
   </g>
   <g id="patch_98">
    <path d="M 380.12117 170.188773 
L 393.718171 170.188773 
L 393.718171 169.871211 
L 380.12117 169.871211 
z
" clip-path="url(#p3cf2f437de)" style="fill: #558b44"/>
   </g>
   <g id="patch_99">
    <path d="M 397.933967 161.932157 
L 411.530968 161.932157 
L 411.530968 160.661909 
L 397.933967 160.661909 
z
" clip-path="url(#p3cf2f437de)" style="fill: #558b44"/>
   </g>
   <g id="patch_100">
    <path d="M 415.746764 163.83753 
L 429.343765 163.83753 
L 429.343765 157.168725 
L 415.746764 157.168725 
z
" clip-path="url(#p3cf2f437de)" style="fill: #558b44"/>
   </g>
   <g id="patch_101">
    <path d="M 432.984954 161.614595 
L 446.581955 161.614595 
L 446.581955 155.580914 
L 432.984954 155.580914 
z
" clip-path="url(#p3cf2f437de)" style="fill: #558b44"/>
   </g>
   <g id="patch_102">
    <path d="M 450.797751 160.661909 
L 464.394752 160.661909 
L 464.394752 151.135044 
L 450.797751 151.135044 
z
" clip-path="url(#p3cf2f437de)" style="fill: #558b44"/>
   </g>
   <g id="patch_103">
    <path d="M 468.035942 151.452606 
L 481.632943 151.452606 
L 481.632943 141.290617 
L 468.035942 141.290617 
z
" clip-path="url(#p3cf2f437de)" style="fill: #558b44"/>
   </g>
   <g id="patch_104">
    <path d="M 485.848739 125.41251 
L 499.44574 125.41251 
L 499.44574 112.0749 
L 485.848739 112.0749 
z
" clip-path="url(#p3cf2f437de)" style="fill: #558b44"/>
   </g>
   <g id="patch_105">
    <path d="M 503.661536 119.378829 
L 517.258537 119.378829 
L 517.258537 105.723657 
L 503.661536 105.723657 
z
" clip-path="url(#p3cf2f437de)" style="fill: #558b44"/>
   </g>
   <g id="patch_106">
    <path d="M 519.750514 112.392462 
L 533.347515 112.392462 
L 533.347515 93.656295 
L 519.750514 93.656295 
z
" clip-path="url(#p3cf2f437de)" style="fill: #558b44"/>
   </g>
   <g id="patch_107">
    <path d="M 537.563311 127.635445 
L 551.160312 127.635445 
L 551.160312 81.271371 
L 537.563311 81.271371 
z
" clip-path="url(#p3cf2f437de)" style="fill: #558b44"/>
   </g>
   <g id="patch_108">
    <path d="M 554.801502 122.236889 
L 568.398503 122.236889 
L 568.398503 66.34595 
L 554.801502 66.34595 
z
" clip-path="url(#p3cf2f437de)" style="fill: #558b44"/>
   </g>
   <g id="patch_109">
    <path d="M 572.614299 117.791018 
L 586.2113 117.791018 
L 586.2113 59.994707 
L 572.614299 59.994707 
z
" clip-path="url(#p3cf2f437de)" style="fill: #558b44"/>
   </g>
   <g id="patch_110">
    <path d="M 589.85249 114.932959 
L 603.449491 114.932959 
L 603.449491 57.45421 
L 589.85249 57.45421 
z
" clip-path="url(#p3cf2f437de)" style="fill: #558b44"/>
   </g>
   <g id="patch_111">
    <path d="M 607.665287 111.122213 
L 621.262288 111.122213 
L 621.262288 55.548837 
L 607.665287 55.548837 
z
" clip-path="url(#p3cf2f437de)" style="fill: #558b44"/>
   </g>
   <g id="patch_112">
    <path d="M 625.478084 110.804651 
L 639.075085 110.804651 
L 639.075085 53.961026 
L 625.478084 53.961026 
z
" clip-path="url(#p3cf2f437de)" style="fill: #558b44"/>
   </g>
   <g id="patch_113">
    <path d="M 642.716274 111.439775 
L 656.313275 111.439775 
L 656.313275 52.055654 
L 642.716274 52.055654 
z
" clip-path="url(#p3cf2f437de)" style="fill: #558b44"/>
   </g>
   <g id="patch_114">
    <path d="M 660.529072 112.0749 
L 674.126072 112.0749 
L 674.126072 52.055654 
L 660.529072 52.055654 
z
" clip-path="url(#p3cf2f437de)" style="fill: #558b44"/>
   </g>
   <g id="patch_115">
    <path d="M 677.767262 110.804651 
L 691.364263 110.804651 
L 691.364263 51.420529 
L 677.767262 51.420529 
z
" clip-path="url(#p3cf2f437de)" style="fill: #558b44"/>
   </g>
   <g id="patch_116">
    <path d="M 695.580059 103.500722 
L 709.17706 103.500722 
L 709.17706 44.434162 
L 695.580059 44.434162 
z
" clip-path="url(#p3cf2f437de)" style="fill: #558b44"/>
   </g>
   <g id="patch_117">
    <path d="M 713.392856 102.230473 
L 726.989857 102.230473 
L 726.989857 43.481476 
L 713.392856 43.481476 
z
" clip-path="url(#p3cf2f437de)" style="fill: #558b44"/>
   </g>
   <g id="patch_118">
    <path d="M 729.481834 101.277787 
L 743.078835 101.277787 
L 743.078835 41.893665 
L 729.481834 41.893665 
z
" clip-path="url(#p3cf2f437de)" style="fill: #558b44"/>
   </g>
   <g id="patch_119">
    <path d="M 83.62429 248.944186 
L 97.221291 248.944186 
L 97.221291 248.944186 
L 83.62429 248.944186 
z
" clip-path="url(#p3cf2f437de)" style="fill: #9a6b92"/>
   </g>
   <g id="patch_120">
    <path d="M 99.713268 248.944186 
L 113.310269 248.944186 
L 113.310269 248.944186 
L 99.713268 248.944186 
z
" clip-path="url(#p3cf2f437de)" style="fill: #9a6b92"/>
   </g>
   <g id="patch_121">
    <path d="M 117.526065 248.944186 
L 131.123066 248.944186 
L 131.123066 248.944186 
L 117.526065 248.944186 
z
" clip-path="url(#p3cf2f437de)" style="fill: #9a6b92"/>
   </g>
   <g id="patch_122">
    <path d="M 134.764255 248.944186 
L 148.361256 248.944186 
L 148.361256 248.944186 
L 134.764255 248.944186 
z
" clip-path="url(#p3cf2f437de)" style="fill: #9a6b92"/>
   </g>
   <g id="patch_123">
    <path d="M 152.577053 238.147073 
L 166.174053 238.147073 
L 166.174053 238.147073 
L 152.577053 238.147073 
z
" clip-path="url(#p3cf2f437de)" style="fill: #9a6b92"/>
   </g>
   <g id="patch_124">
    <path d="M 169.815243 236.876824 
L 183.412244 236.876824 
L 183.412244 236.876824 
L 169.815243 236.876824 
z
" clip-path="url(#p3cf2f437de)" style="fill: #9a6b92"/>
   </g>
   <g id="patch_125">
    <path d="M 187.62804 236.559262 
L 201.225041 236.559262 
L 201.225041 236.559262 
L 187.62804 236.559262 
z
" clip-path="url(#p3cf2f437de)" style="fill: #9a6b92"/>
   </g>
   <g id="patch_126">
    <path d="M 205.440837 235.924138 
L 219.037838 235.924138 
L 219.037838 235.924138 
L 205.440837 235.924138 
z
" clip-path="url(#p3cf2f437de)" style="fill: #9a6b92"/>
   </g>
   <g id="patch_127">
    <path d="M 222.679028 224.174338 
L 236.276029 224.174338 
L 236.276029 224.174338 
L 222.679028 224.174338 
z
" clip-path="url(#p3cf2f437de)" style="fill: #9a6b92"/>
   </g>
   <g id="patch_128">
    <path d="M 240.491825 220.04603 
L 254.088826 220.04603 
L 254.088826 220.04603 
L 240.491825 220.04603 
z
" clip-path="url(#p3cf2f437de)" style="fill: #9a6b92"/>
   </g>
   <g id="patch_129">
    <path d="M 257.730016 215.282598 
L 271.327017 215.282598 
L 271.327017 215.282598 
L 257.730016 215.282598 
z
" clip-path="url(#p3cf2f437de)" style="fill: #9a6b92"/>
   </g>
   <g id="patch_130">
    <path d="M 275.542813 208.931355 
L 289.139814 208.931355 
L 289.139814 208.931355 
L 275.542813 208.931355 
z
" clip-path="url(#p3cf2f437de)" style="fill: #9a6b92"/>
   </g>
   <g id="patch_131">
    <path d="M 293.35561 208.931355 
L 306.952611 208.931355 
L 306.952611 208.931355 
L 293.35561 208.931355 
z
" clip-path="url(#p3cf2f437de)" style="fill: #9a6b92"/>
   </g>
   <g id="patch_132">
    <path d="M 310.019194 207.343545 
L 323.616195 207.343545 
L 323.616195 207.343545 
L 310.019194 207.343545 
z
" clip-path="url(#p3cf2f437de)" style="fill: #9a6b92"/>
   </g>
   <g id="patch_133">
    <path d="M 327.831991 205.755734 
L 341.428992 205.755734 
L 341.428992 205.755734 
L 327.831991 205.755734 
z
" clip-path="url(#p3cf2f437de)" style="fill: #9a6b92"/>
   </g>
   <g id="patch_134">
    <path d="M 345.070182 205.755734 
L 358.667183 205.755734 
L 358.667183 205.755734 
L 345.070182 205.755734 
z
" clip-path="url(#p3cf2f437de)" style="fill: #9a6b92"/>
   </g>
   <g id="patch_135">
    <path d="M 362.882979 188.92494 
L 376.47998 188.92494 
L 376.47998 188.92494 
L 362.882979 188.92494 
z
" clip-path="url(#p3cf2f437de)" style="fill: #9a6b92"/>
   </g>
   <g id="patch_136">
    <path d="M 380.12117 169.871211 
L 393.718171 169.871211 
L 393.718171 169.871211 
L 380.12117 169.871211 
z
" clip-path="url(#p3cf2f437de)" style="fill: #9a6b92"/>
   </g>
   <g id="patch_137">
    <path d="M 397.933967 160.661909 
L 411.530968 160.661909 
L 411.530968 160.661909 
L 397.933967 160.661909 
z
" clip-path="url(#p3cf2f437de)" style="fill: #9a6b92"/>
   </g>
   <g id="patch_138">
    <path d="M 415.746764 157.168725 
L 429.343765 157.168725 
L 429.343765 157.168725 
L 415.746764 157.168725 
z
" clip-path="url(#p3cf2f437de)" style="fill: #9a6b92"/>
   </g>
   <g id="patch_139">
    <path d="M 432.984954 155.580914 
L 446.581955 155.580914 
L 446.581955 153.040417 
L 432.984954 153.040417 
z
" clip-path="url(#p3cf2f437de)" style="fill: #9a6b92"/>
   </g>
   <g id="patch_140">
    <path d="M 450.797751 151.135044 
L 464.394752 151.135044 
L 464.394752 147.959423 
L 450.797751 147.959423 
z
" clip-path="url(#p3cf2f437de)" style="fill: #9a6b92"/>
   </g>
   <g id="patch_141">
    <path d="M 468.035942 141.290617 
L 481.632943 141.290617 
L 481.632943 137.16231 
L 468.035942 137.16231 
z
" clip-path="url(#p3cf2f437de)" style="fill: #9a6b92"/>
   </g>
   <g id="patch_142">
    <path d="M 485.848739 112.0749 
L 499.44574 112.0749 
L 499.44574 107.62903 
L 485.848739 107.62903 
z
" clip-path="url(#p3cf2f437de)" style="fill: #9a6b92"/>
   </g>
   <g id="patch_143">
    <path d="M 503.661536 105.723657 
L 517.258537 105.723657 
L 517.258537 100.960225 
L 503.661536 100.960225 
z
" clip-path="url(#p3cf2f437de)" style="fill: #9a6b92"/>
   </g>
   <g id="patch_144">
    <path d="M 519.750514 93.656295 
L 533.347515 93.656295 
L 533.347515 87.622614 
L 519.750514 87.622614 
z
" clip-path="url(#p3cf2f437de)" style="fill: #9a6b92"/>
   </g>
   <g id="patch_145">
    <path d="M 537.563311 81.271371 
L 551.160312 81.271371 
L 551.160312 75.23769 
L 537.563311 75.23769 
z
" clip-path="url(#p3cf2f437de)" style="fill: #9a6b92"/>
   </g>
   <g id="patch_146">
    <path d="M 554.801502 66.34595 
L 568.398503 66.34595 
L 568.398503 57.771772 
L 554.801502 57.771772 
z
" clip-path="url(#p3cf2f437de)" style="fill: #9a6b92"/>
   </g>
   <g id="patch_147">
    <path d="M 572.614299 59.994707 
L 586.2113 59.994707 
L 586.2113 50.785405 
L 572.614299 50.785405 
z
" clip-path="url(#p3cf2f437de)" style="fill: #9a6b92"/>
   </g>
   <g id="patch_148">
    <path d="M 589.85249 57.45421 
L 603.449491 57.45421 
L 603.449491 42.846351 
L 589.85249 42.846351 
z
" clip-path="url(#p3cf2f437de)" style="fill: #9a6b92"/>
   </g>
   <g id="patch_149">
    <path d="M 607.665287 55.548837 
L 621.262288 55.548837 
L 621.262288 37.130233 
L 607.665287 37.130233 
z
" clip-path="url(#p3cf2f437de)" style="fill: #9a6b92"/>
   </g>
   <g id="patch_150">
    <path d="M 625.478084 53.961026 
L 639.075085 53.961026 
L 639.075085 34.907298 
L 625.478084 34.907298 
z
" clip-path="url(#p3cf2f437de)" style="fill: #9a6b92"/>
   </g>
   <g id="patch_151">
    <path d="M 642.716274 52.055654 
L 656.313275 52.055654 
L 656.313275 31.731676 
L 642.716274 31.731676 
z
" clip-path="url(#p3cf2f437de)" style="fill: #9a6b92"/>
   </g>
   <g id="patch_152">
    <path d="M 660.529072 52.055654 
L 674.126072 52.055654 
L 674.126072 31.414114 
L 660.529072 31.414114 
z
" clip-path="url(#p3cf2f437de)" style="fill: #9a6b92"/>
   </g>
   <g id="patch_153">
    <path d="M 677.767262 51.420529 
L 691.364263 51.420529 
L 691.364263 29.826303 
L 677.767262 29.826303 
z
" clip-path="url(#p3cf2f437de)" style="fill: #9a6b92"/>
   </g>
   <g id="patch_154">
    <path d="M 695.580059 44.434162 
L 709.17706 44.434162 
L 709.17706 22.522374 
L 695.580059 22.522374 
z
" clip-path="url(#p3cf2f437de)" style="fill: #9a6b92"/>
   </g>
   <g id="patch_155">
    <path d="M 713.392856 43.481476 
L 726.989857 43.481476 
L 726.989857 20.617001 
L 713.392856 20.617001 
z
" clip-path="url(#p3cf2f437de)" style="fill: #9a6b92"/>
   </g>
   <g id="patch_156">
    <path d="M 729.481834 41.893665 
L 743.078835 41.893665 
L 743.078835 18.711628 
L 729.481834 18.711628 
z
" clip-path="url(#p3cf2f437de)" style="fill: #9a6b92"/>
   </g>
   <g id="text_10">
    <!--   725 stars -->
    <g style="fill: #2c241a" transform="translate(742.280335 14.671003) scale(0.1 -0.1)">
     <use xlink:href="#Inter-Regular-20"/>
     <use xlink:href="#Inter-Regular-20" transform="translate(28.125 0)"/>
     <use xlink:href="#Inter-Regular-37" transform="translate(56.25 0)"/>
     <use xlink:href="#Inter-Regular-32" transform="translate(112.841797 0)"/>
     <use xlink:href="#Inter-Regular-35" transform="translate(173.828125 0)"/>
     <use xlink:href="#Inter-Regular-20" transform="translate(233.154297 0)"/>
     <use xlink:href="#Inter-Regular-73" transform="translate(261.279297 0)"/>
     <use xlink:href="#Inter-Regular-74" transform="translate(314.0625 0)"/>
     <use xlink:href="#Inter-Regular-61" transform="translate(346.777344 0)"/>
     <use xlink:href="#Inter-Regular-72" transform="translate(402.929688 0)"/>
     <use xlink:href="#Inter-Regular-73" transform="translate(440.576172 0)"/>
    </g>
   </g>
   <g id="legend_1">
    <g id="patch_157">
     <path d="M 55.151563 79.990938 
L 164.378125 79.990938 
L 164.378125 11.7 
L 55.151563 11.7 
z
" style="fill: #f0ebdf; opacity: 0.8; stroke: #ded7c8; stroke-linejoin: miter"/>
    </g>
    <g id="text_11">
     <!-- Observations per star -->
     <g style="fill: #2c241a" transform="translate(58.751563 22.814063) scale(0.1 -0.1)">
      <defs>
       <path id="Inter-Regular-4f" d="M 2450 -63 
Q 1853 -63 1386 226 
Q 919 516 650 1052 
Q 381 1588 381 2325 
Q 381 3066 650 3602 
Q 919 4138 1386 4428 
Q 1853 4719 2450 4719 
Q 3047 4719 3512 4428 
Q 3978 4138 4245 3602 
Q 4513 3066 4513 2325 
Q 4513 1588 4245 1052 
Q 3978 516 3512 226 
Q 3047 -63 2450 -63 
z
M 2450 488 
Q 2866 488 3202 698 
Q 3538 909 3736 1320 
Q 3934 1731 3934 2325 
Q 3934 2925 3736 3336 
Q 3538 3747 3202 3958 
Q 2866 4169 2450 4169 
Q 2031 4169 1693 3956 
Q 1356 3744 1157 3333 
Q 959 2922 959 2325 
Q 959 1731 1157 1322 
Q 1356 913 1693 700 
Q 2031 488 2450 488 
z
" transform="scale(0.015625)"/>
       <path id="Inter-Regular-6e" d="M 1056 2094 
L 1056 0 
L 494 0 
L 494 3494 
L 1034 3494 
L 1038 2647 
L 959 2647 
Q 1119 3131 1414 3334 
Q 1709 3538 2106 3538 
Q 2459 3538 2725 3392 
Q 2991 3247 3139 2955 
Q 3288 2663 3288 2219 
L 3288 0 
L 2725 0 
L 2725 2172 
Q 2725 2575 2514 2803 
Q 2303 3031 1938 3031 
Q 1688 3031 1488 2922 
Q 1288 2813 1172 2603 
Q 1056 2394 1056 2094 
z
" transform="scale(0.015625)"/>
       <path id="Inter-Regular-70" d="M 494 -1306 
L 494 3494 
L 1038 3494 
L 1038 2934 
L 1100 2934 
Q 1159 3028 1265 3170 
Q 1372 3313 1572 3425 
Q 1772 3538 2113 3538 
Q 2550 3538 2883 3319 
Q 3216 3100 3405 2695 
Q 3594 2291 3594 1738 
Q 3594 1181 3406 775 
Q 3219 369 2886 147 
Q 2553 -75 2116 -75 
Q 1784 -75 1581 39 
Q 1378 153 1268 298 
Q 1159 444 1100 541 
L 1056 541 
L 1056 -1306 
L 494 -1306 
z
M 2031 428 
Q 2359 428 2579 604 
Q 2800 781 2911 1079 
Q 3022 1378 3022 1744 
Q 3022 2106 2912 2398 
Q 2803 2691 2583 2862 
Q 2363 3034 2031 3034 
Q 1709 3034 1490 2871 
Q 1272 2709 1161 2420 
Q 1050 2131 1050 1744 
Q 1050 1356 1162 1059 
Q 1275 763 1495 595 
Q 1716 428 2031 428 
z
" transform="scale(0.015625)"/>
      </defs>
      <use xlink:href="#Inter-Regular-4f"/>
      <use xlink:href="#Inter-Regular-62" transform="translate(76.464844 0)"/>
      <use xlink:href="#Inter-Regular-73" transform="translate(137.695312 0)"/>
      <use xlink:href="#Inter-Regular-65" transform="translate(190.478516 0)"/>
      <use xlink:href="#Inter-Regular-72" transform="translate(248.779297 0)"/>
      <use xlink:href="#Inter-Regular-76" transform="translate(286.425781 0)"/>
      <use xlink:href="#Inter-Regular-61" transform="translate(342.626953 0)"/>
      <use xlink:href="#Inter-Regular-74" transform="translate(398.779297 0)"/>
      <use xlink:href="#Inter-Regular-69" transform="translate(431.494141 0)"/>
      <use xlink:href="#Inter-Regular-6f" transform="translate(455.712891 0)"/>
      <use xlink:href="#Inter-Regular-6e" transform="translate(515.673828 0)"/>
      <use xlink:href="#Inter-Regular-73" transform="translate(574.755859 0)"/>
      <use xlink:href="#Inter-Regular-20" transform="translate(627.539062 0)"/>
      <use xlink:href="#Inter-Regular-70" transform="translate(655.664062 0)"/>
      <use xlink:href="#Inter-Regular-65" transform="translate(716.894531 0)"/>
      <use xlink:href="#Inter-Regular-72" transform="translate(775.195312 0)"/>
      <use xlink:href="#Inter-Regular-20" transform="translate(812.841797 0)"/>
      <use xlink:href="#Inter-Regular-73" transform="translate(840.966797 0)"/>
      <use xlink:href="#Inter-Regular-74" transform="translate(893.75 0)"/>
      <use xlink:href="#Inter-Regular-61" transform="translate(926.464844 0)"/>
      <use xlink:href="#Inter-Regular-72" transform="translate(982.617188 0)"/>
     </g>
    </g>
    <g id="patch_158">
     <path d="M 75.612656 35.902188 
L 93.612656 35.902188 
L 93.612656 29.602188 
L 75.612656 29.602188 
z
" style="fill: #b85b3a"/>
    </g>
    <g id="text_12">
     <!-- 100 – 200 -->
     <g style="fill: #2c241a" transform="translate(100.812656 35.902188) scale(0.09 -0.09)">
      <defs>
       <path id="Inter-Regular-2013" d="M 3200 2247 
L 3200 1728 
L 0 1728 
L 0 2247 
L 3200 2247 
z
" transform="scale(0.015625)"/>
      </defs>
      <use xlink:href="#Inter-Regular-31"/>
      <use xlink:href="#Inter-Regular-30" transform="translate(40.673828 0)"/>
      <use xlink:href="#Inter-Regular-30" transform="translate(103.759766 0)"/>
      <use xlink:href="#Inter-Regular-20" transform="translate(166.845703 0)"/>
      <use xlink:href="#Inter-Regular-2013" transform="translate(194.970703 0)"/>
      <use xlink:href="#Inter-Regular-20" transform="translate(244.970703 0)"/>
      <use xlink:href="#Inter-Regular-32" transform="translate(273.095703 0)"/>
      <use xlink:href="#Inter-Regular-30" transform="translate(334.082031 0)"/>
      <use xlink:href="#Inter-Regular-30" transform="translate(397.167969 0)"/>
     </g>
    </g>
    <g id="patch_159">
     <path d="M 75.612656 48.78625 
L 93.612656 48.78625 
L 93.612656 42.48625 
L 75.612656 42.48625 
z
" style="fill: #4a78a8"/>
    </g>
    <g id="text_13">
     <!-- 200 – 500 -->
     <g style="fill: #2c241a" transform="translate(100.812656 48.78625) scale(0.09 -0.09)">
      <use xlink:href="#Inter-Regular-32"/>
      <use xlink:href="#Inter-Regular-30" transform="translate(60.986328 0)"/>
      <use xlink:href="#Inter-Regular-30" transform="translate(124.072266 0)"/>
      <use xlink:href="#Inter-Regular-20" transform="translate(187.158203 0)"/>
      <use xlink:href="#Inter-Regular-2013" transform="translate(215.283203 0)"/>
      <use xlink:href="#Inter-Regular-20" transform="translate(265.283203 0)"/>
      <use xlink:href="#Inter-Regular-35" transform="translate(293.408203 0)"/>
      <use xlink:href="#Inter-Regular-30" transform="translate(352.734375 0)"/>
      <use xlink:href="#Inter-Regular-30" transform="translate(415.820312 0)"/>
     </g>
    </g>
    <g id="patch_160">
     <path d="M 75.612656 61.670313 
L 93.612656 61.670313 
L 93.612656 55.370313 
L 75.612656 55.370313 
z
" style="fill: #558b44"/>
    </g>
    <g id="text_14">
     <!-- 500 – 1 k -->
     <g style="fill: #2c241a" transform="translate(100.812656 61.670313) scale(0.09 -0.09)">
      <defs>
       <path id="Inter-Regular-6b" d="M 1022 1256 
L 1022 1953 
L 1125 1953 
L 2619 3494 
L 3316 3494 
L 1700 1834 
L 1638 1834 
L 1022 1256 
z
M 494 0 
L 494 4656 
L 1056 4656 
L 1056 0 
L 494 0 
z
M 2703 0 
L 1366 1709 
L 1766 2106 
L 3425 0 
L 2703 0 
z
" transform="scale(0.015625)"/>
      </defs>
      <use xlink:href="#Inter-Regular-35"/>
      <use xlink:href="#Inter-Regular-30" transform="translate(59.326172 0)"/>
      <use xlink:href="#Inter-Regular-30" transform="translate(122.412109 0)"/>
      <use xlink:href="#Inter-Regular-20" transform="translate(185.498047 0)"/>
      <use xlink:href="#Inter-Regular-2013" transform="translate(213.623047 0)"/>
      <use xlink:href="#Inter-Regular-20" transform="translate(263.623047 0)"/>
      <use xlink:href="#Inter-Regular-31" transform="translate(291.748047 0)"/>
      <use xlink:href="#Inter-Regular-20" transform="translate(332.421875 0)"/>
      <use xlink:href="#Inter-Regular-6b" transform="translate(360.546875 0)"/>
     </g>
    </g>
    <g id="patch_161">
     <path d="M 75.612656 74.554375 
L 93.612656 74.554375 
L 93.612656 68.254375 
L 75.612656 68.254375 
z
" style="fill: #9a6b92"/>
    </g>
    <g id="text_15">
     <!-- 1 k – 2 k -->
     <g style="fill: #2c241a" transform="translate(100.812656 74.554375) scale(0.09 -0.09)">
      <use xlink:href="#Inter-Regular-31"/>
      <use xlink:href="#Inter-Regular-20" transform="translate(40.673828 0)"/>
      <use xlink:href="#Inter-Regular-6b" transform="translate(68.798828 0)"/>
      <use xlink:href="#Inter-Regular-20" transform="translate(123.681641 0)"/>
      <use xlink:href="#Inter-Regular-2013" transform="translate(151.806641 0)"/>
      <use xlink:href="#Inter-Regular-20" transform="translate(201.806641 0)"/>
      <use xlink:href="#Inter-Regular-32" transform="translate(229.931641 0)"/>
      <use xlink:href="#Inter-Regular-20" transform="translate(290.917969 0)"/>
      <use xlink:href="#Inter-Regular-6b" transform="translate(319.042969 0)"/>
     </g>
    </g>
   </g>
  </g>
  <g id="axes_2">
   <g id="patch_162">
    <path d="M 50.651563 367.56 
L 776.051563 367.56 
L 776.051563 262.804186 
L 50.651563 262.804186 
L 50.651563 367.56 
z
" style="fill: none"/>
   </g>
   <g id="matplotlib.axis_3">
    <g id="xtick_12">
     <g id="line2d_28">
      <g>
       <use xlink:href="#m2f638a2316" x="64.565504" y="367.56" style="fill: #2c241a; stroke: #2c241a; stroke-width: 0.8"/>
      </g>
     </g>
     <g id="text_16">
      <!-- 2023 -->
      <g style="fill: #2c241a" transform="translate(50.989957 382.5625) scale(0.11 -0.11)">
       <use xlink:href="#Inter-Regular-32"/>
       <use xlink:href="#Inter-Regular-30" transform="translate(60.986328 0)"/>
       <use xlink:href="#Inter-Regular-32" transform="translate(124.072266 0)"/>
       <use xlink:href="#Inter-Regular-33" transform="translate(185.058594 0)"/>
      </g>
     </g>
    </g>
    <g id="xtick_13">
     <g id="line2d_29">
      <g>
       <use xlink:href="#m2f638a2316" x="133.518267" y="367.56" style="fill: #2c241a; stroke: #2c241a; stroke-width: 0.8"/>
      </g>
     </g>
     <g id="text_17">
      <!-- May -->
      <g style="fill: #2c241a" transform="translate(122.370454 382.5625) scale(0.11 -0.11)">
       <defs>
        <path id="Inter-Regular-4d" d="M 563 0 
L 563 4656 
L 1406 4656 
L 2553 1719 
Q 2594 1616 2645 1461 
Q 2697 1306 2755 1125 
Q 2813 944 2866 764 
Q 2919 584 2959 431 
L 2828 431 
Q 2872 575 2925 751 
Q 2978 928 3036 1111 
Q 3094 1294 3147 1453 
Q 3200 1613 3241 1719 
L 4372 4656 
L 5219 4656 
L 5219 0 
L 4634 0 
L 4634 2659 
Q 4634 2803 4636 2987 
Q 4638 3172 4642 3375 
Q 4647 3578 4651 3787 
Q 4656 3997 4659 4194 
L 4709 4194 
Q 4644 3978 4570 3754 
Q 4497 3531 4426 3323 
Q 4356 3116 4293 2944 
Q 4231 2772 4188 2659 
L 3147 0 
L 2631 0 
L 1575 2659 
Q 1531 2769 1472 2936 
Q 1413 3103 1342 3308 
Q 1272 3513 1197 3739 
Q 1122 3966 1044 4194 
L 1100 4194 
Q 1106 4019 1111 3816 
Q 1116 3613 1119 3405 
Q 1122 3197 1125 3005 
Q 1128 2813 1128 2659 
L 1128 0 
L 563 0 
z
" transform="scale(0.015625)"/>
        <path id="Inter-Regular-79" d="M 438 -1266 
L 581 -778 
L 641 -794 
Q 813 -838 953 -817 
Q 1094 -797 1206 -678 
Q 1319 -559 1403 -309 
L 1503 -19 
L 169 3494 
L 784 3494 
L 1528 1422 
Q 1647 1097 1728 778 
Q 1809 459 1900 159 
L 1694 159 
Q 1784 459 1867 779 
Q 1950 1100 2066 1422 
L 2816 3494 
L 3428 3494 
L 1894 -522 
Q 1788 -800 1639 -979 
Q 1491 -1159 1294 -1245 
Q 1097 -1331 850 -1331 
Q 700 -1331 590 -1309 
Q 481 -1288 438 -1266 
z
" transform="scale(0.015625)"/>
       </defs>
       <use xlink:href="#Inter-Regular-4d"/>
       <use xlink:href="#Inter-Regular-61" transform="translate(90.332031 0)"/>
       <use xlink:href="#Inter-Regular-79" transform="translate(146.484375 0)"/>
      </g>
     </g>
    </g>
    <g id="xtick_14">
     <g id="line2d_30">
      <g>
       <use xlink:href="#m2f638a2316" x="204.194849" y="367.56" style="fill: #2c241a; stroke: #2c241a; stroke-width: 0.8"/>
      </g>
     </g>
     <g id="text_18">
      <!-- Sep -->
      <g style="fill: #2c241a" transform="translate(194.092036 382.670781) scale(0.11 -0.11)">
       <defs>
        <path id="Inter-Regular-53" d="M 2053 -81 
Q 1550 -81 1179 81 
Q 809 244 600 536 
Q 391 828 363 1219 
L 972 1219 
Q 997 956 1150 786 
Q 1303 616 1542 533 
Q 1781 450 2053 450 
Q 2369 450 2620 553 
Q 2872 656 3019 843 
Q 3166 1031 3166 1278 
Q 3166 1503 3039 1643 
Q 2913 1784 2703 1875 
Q 2494 1966 2244 2034 
L 1681 2194 
Q 1119 2353 806 2650 
Q 494 2947 494 3409 
Q 494 3803 706 4098 
Q 919 4394 1281 4556 
Q 1644 4719 2094 4719 
Q 2553 4719 2906 4556 
Q 3259 4394 3464 4114 
Q 3669 3834 3681 3481 
L 3100 3481 
Q 3059 3822 2775 4008 
Q 2491 4194 2075 4194 
Q 1775 4194 1548 4095 
Q 1322 3997 1197 3826 
Q 1072 3656 1072 3438 
Q 1072 3194 1223 3045 
Q 1375 2897 1583 2814 
Q 1791 2731 1959 2684 
L 2425 2556 
Q 2613 2506 2839 2418 
Q 3066 2331 3272 2186 
Q 3478 2041 3611 1817 
Q 3744 1594 3744 1269 
Q 3744 888 3545 581 
Q 3347 275 2969 97 
Q 2591 -81 2053 -81 
z
" transform="scale(0.015625)"/>
       </defs>
       <use xlink:href="#Inter-Regular-53"/>
       <use xlink:href="#Inter-Regular-65" transform="translate(64.160156 0)"/>
       <use xlink:href="#Inter-Regular-70" transform="translate(122.460938 0)"/>
      </g>
     </g>
    </g>
    <g id="xtick_15">
     <g id="line2d_31">
      <g>
       <use xlink:href="#m2f638a2316" x="274.296824" y="367.56" style="fill: #2c241a; stroke: #2c241a; stroke-width: 0.8"/>
      </g>
     </g>
     <g id="text_19">
      <!-- 2024 -->
      <g style="fill: #2c241a" transform="translate(260.565731 382.5625) scale(0.11 -0.11)">
       <use xlink:href="#Inter-Regular-32"/>
       <use xlink:href="#Inter-Regular-30" transform="translate(60.986328 0)"/>
       <use xlink:href="#Inter-Regular-32" transform="translate(124.072266 0)"/>
       <use xlink:href="#Inter-Regular-34" transform="translate(185.058594 0)"/>
      </g>
     </g>
    </g>
    <g id="xtick_16">
     <g id="line2d_32">
      <g>
       <use xlink:href="#m2f638a2316" x="343.824193" y="367.56" style="fill: #2c241a; stroke: #2c241a; stroke-width: 0.8"/>
      </g>
     </g>
     <g id="text_20">
      <!-- May -->
      <g style="fill: #2c241a" transform="translate(332.676381 382.5625) scale(0.11 -0.11)">
       <use xlink:href="#Inter-Regular-4d"/>
       <use xlink:href="#Inter-Regular-61" transform="translate(90.332031 0)"/>
       <use xlink:href="#Inter-Regular-79" transform="translate(146.484375 0)"/>
      </g>
     </g>
    </g>
    <g id="xtick_17">
     <g id="line2d_33">
      <g>
       <use xlink:href="#m2f638a2316" x="414.500775" y="367.56" style="fill: #2c241a; stroke: #2c241a; stroke-width: 0.8"/>
      </g>
     </g>
     <g id="text_21">
      <!-- Sep -->
      <g style="fill: #2c241a" transform="translate(404.397963 382.670781) scale(0.11 -0.11)">
       <use xlink:href="#Inter-Regular-53"/>
       <use xlink:href="#Inter-Regular-65" transform="translate(64.160156 0)"/>
       <use xlink:href="#Inter-Regular-70" transform="translate(122.460938 0)"/>
      </g>
     </g>
    </g>
    <g id="xtick_18">
     <g id="line2d_34">
      <g>
       <use xlink:href="#m2f638a2316" x="484.602751" y="367.56" style="fill: #2c241a; stroke: #2c241a; stroke-width: 0.8"/>
      </g>
     </g>
     <g id="text_22">
      <!-- 2025 -->
      <g style="fill: #2c241a" transform="translate(471.161266 382.5625) scale(0.11 -0.11)">
       <use xlink:href="#Inter-Regular-32"/>
       <use xlink:href="#Inter-Regular-30" transform="translate(60.986328 0)"/>
       <use xlink:href="#Inter-Regular-32" transform="translate(124.072266 0)"/>
       <use xlink:href="#Inter-Regular-35" transform="translate(185.058594 0)"/>
      </g>
     </g>
    </g>
    <g id="xtick_19">
     <g id="line2d_35">
      <g>
       <use xlink:href="#m2f638a2316" x="553.555513" y="367.56" style="fill: #2c241a; stroke: #2c241a; stroke-width: 0.8"/>
      </g>
     </g>
     <g id="text_23">
      <!-- May -->
      <g style="fill: #2c241a" transform="translate(542.407701 382.5625) scale(0.11 -0.11)">
       <use xlink:href="#Inter-Regular-4d"/>
       <use xlink:href="#Inter-Regular-61" transform="translate(90.332031 0)"/>
       <use xlink:href="#Inter-Regular-79" transform="translate(146.484375 0)"/>
      </g>
     </g>
    </g>
    <g id="xtick_20">
     <g id="line2d_36">
      <g>
       <use xlink:href="#m2f638a2316" x="624.232095" y="367.56" style="fill: #2c241a; stroke: #2c241a; stroke-width: 0.8"/>
      </g>
     </g>
     <g id="text_24">
      <!-- Sep -->
      <g style="fill: #2c241a" transform="translate(614.129283 382.670781) scale(0.11 -0.11)">
       <use xlink:href="#Inter-Regular-53"/>
       <use xlink:href="#Inter-Regular-65" transform="translate(64.160156 0)"/>
       <use xlink:href="#Inter-Regular-70" transform="translate(122.460938 0)"/>
      </g>
     </g>
    </g>
    <g id="xtick_21">
     <g id="line2d_37">
      <g>
       <use xlink:href="#m2f638a2316" x="694.334071" y="367.56" style="fill: #2c241a; stroke: #2c241a; stroke-width: 0.8"/>
      </g>
     </g>
     <g id="text_25">
      <!-- 2026 -->
      <g style="fill: #2c241a" transform="translate(680.744774 382.5625) scale(0.11 -0.11)">
       <use xlink:href="#Inter-Regular-32"/>
       <use xlink:href="#Inter-Regular-30" transform="translate(60.986328 0)"/>
       <use xlink:href="#Inter-Regular-32" transform="translate(124.072266 0)"/>
       <use xlink:href="#Inter-Regular-36" transform="translate(185.058594 0)"/>
      </g>
     </g>
    </g>
    <g id="xtick_22">
     <g id="line2d_38">
      <g>
       <use xlink:href="#m2f638a2316" x="763.286834" y="367.56" style="fill: #2c241a; stroke: #2c241a; stroke-width: 0.8"/>
      </g>
     </g>
     <g id="text_26">
      <!-- May -->
      <g style="fill: #2c241a" transform="translate(752.139021 382.5625) scale(0.11 -0.11)">
       <use xlink:href="#Inter-Regular-4d"/>
       <use xlink:href="#Inter-Regular-61" transform="translate(90.332031 0)"/>
       <use xlink:href="#Inter-Regular-79" transform="translate(146.484375 0)"/>
      </g>
     </g>
    </g>
   </g>
   <g id="matplotlib.axis_4">
    <g id="ytick_9">
     <g id="line2d_39">
      <path d="M 50.651563 367.56 
L 776.051563 367.56 
" clip-path="url(#p3f34ab9c20)" style="fill: none; stroke: #ded7c8; stroke-opacity: 0.6; stroke-width: 0.5; stroke-linecap: square"/>
     </g>
     <g id="line2d_40">
      <g>
       <use xlink:href="#md331cf016a" x="50.651563" y="367.56" style="fill: #2c241a; stroke: #2c241a; stroke-width: 0.8"/>
      </g>
     </g>
     <g id="text_27">
      <!-- $\mathdefault{10^{0}}$ -->
      <g style="fill: #2c241a" transform="translate(26.931563 371.56125) scale(0.11 -0.11)">
       <use xlink:href="#Inter-Regular-31" transform="translate(0 0.170313)"/>
       <use xlink:href="#Inter-Regular-30" transform="translate(40.673828 0.170313)"/>
       <use xlink:href="#Inter-Regular-30" transform="translate(104.715156 38.385938) scale(0.7)"/>
      </g>
     </g>
    </g>
    <g id="ytick_10">
     <g id="line2d_41">
      <path d="M 50.651563 336.381732 
L 776.051563 336.381732 
" clip-path="url(#p3f34ab9c20)" style="fill: none; stroke: #ded7c8; stroke-opacity: 0.6; stroke-width: 0.5; stroke-linecap: square"/>
     </g>
     <g id="line2d_42">
      <g>
       <use xlink:href="#md331cf016a" x="50.651563" y="336.381732" style="fill: #2c241a; stroke: #2c241a; stroke-width: 0.8"/>
      </g>
     </g>
     <g id="text_28">
      <!-- $\mathdefault{10^{1}}$ -->
      <g style="fill: #2c241a" transform="translate(28.691563 340.382982) scale(0.11 -0.11)">
       <use xlink:href="#Inter-Regular-31" transform="translate(0 0.859375)"/>
       <use xlink:href="#Inter-Regular-30" transform="translate(40.673828 0.859375)"/>
       <use xlink:href="#Inter-Regular-31" transform="translate(104.715156 39.075) scale(0.7)"/>
      </g>
     </g>
    </g>
    <g id="ytick_11">
     <g id="line2d_43">
      <path d="M 50.651563 305.203464 
L 776.051563 305.203464 
" clip-path="url(#p3f34ab9c20)" style="fill: none; stroke: #ded7c8; stroke-opacity: 0.6; stroke-width: 0.5; stroke-linecap: square"/>
     </g>
     <g id="line2d_44">
      <g>
       <use xlink:href="#md331cf016a" x="50.651563" y="305.203464" style="fill: #2c241a; stroke: #2c241a; stroke-width: 0.8"/>
      </g>
     </g>
     <g id="text_29">
      <!-- $\mathdefault{10^{2}}$ -->
      <g style="fill: #2c241a" transform="translate(27.041563 309.204714) scale(0.11 -0.11)">
       <use xlink:href="#Inter-Regular-31" transform="translate(0 0.170313)"/>
       <use xlink:href="#Inter-Regular-30" transform="translate(40.673828 0.170313)"/>
       <use xlink:href="#Inter-Regular-32" transform="translate(104.715156 38.385938) scale(0.7)"/>
      </g>
     </g>
    </g>
    <g id="ytick_12">
     <g id="line2d_45">
      <path d="M 50.651563 274.025196 
L 776.051563 274.025196 
" clip-path="url(#p3f34ab9c20)" style="fill: none; stroke: #ded7c8; stroke-opacity: 0.6; stroke-width: 0.5; stroke-linecap: square"/>
     </g>
     <g id="line2d_46">
      <g>
       <use xlink:href="#md331cf016a" x="50.651563" y="274.025196" style="fill: #2c241a; stroke: #2c241a; stroke-width: 0.8"/>
      </g>
     </g>
     <g id="text_30">
      <!-- $\mathdefault{10^{3}}$ -->
      <g style="fill: #2c241a" transform="translate(27.041563 278.026446) scale(0.11 -0.11)">
       <use xlink:href="#Inter-Regular-31" transform="translate(0 0.170313)"/>
       <use xlink:href="#Inter-Regular-30" transform="translate(40.673828 0.170313)"/>
       <use xlink:href="#Inter-Regular-33" transform="translate(104.715156 38.385938) scale(0.7)"/>
      </g>
     </g>
    </g>
    <g id="ytick_13">
     <g id="line2d_47">
      <defs>
       <path id="m3cacefbeeb" d="M 0 0 
L -2 0 
" style="stroke: #000000; stroke-width: 0.6"/>
      </defs>
      <g>
       <use xlink:href="#m3cacefbeeb" x="50.651563" y="358.174406" style="stroke: #000000; stroke-width: 0.6"/>
      </g>
     </g>
    </g>
    <g id="ytick_14">
     <g id="line2d_48">
      <g>
       <use xlink:href="#m3cacefbeeb" x="50.651563" y="352.684186" style="stroke: #000000; stroke-width: 0.6"/>
      </g>
     </g>
    </g>
    <g id="ytick_15">
     <g id="line2d_49">
      <g>
       <use xlink:href="#m3cacefbeeb" x="50.651563" y="348.788812" style="stroke: #000000; stroke-width: 0.6"/>
      </g>
     </g>
    </g>
    <g id="ytick_16">
     <g id="line2d_50">
      <g>
       <use xlink:href="#m3cacefbeeb" x="50.651563" y="345.767326" style="stroke: #000000; stroke-width: 0.6"/>
      </g>
     </g>
    </g>
    <g id="ytick_17">
     <g id="line2d_51">
      <g>
       <use xlink:href="#m3cacefbeeb" x="50.651563" y="343.298592" style="stroke: #000000; stroke-width: 0.6"/>
      </g>
     </g>
    </g>
    <g id="ytick_18">
     <g id="line2d_52">
      <g>
       <use xlink:href="#m3cacefbeeb" x="50.651563" y="341.211307" style="stroke: #000000; stroke-width: 0.6"/>
      </g>
     </g>
    </g>
    <g id="ytick_19">
     <g id="line2d_53">
      <g>
       <use xlink:href="#m3cacefbeeb" x="50.651563" y="339.403218" style="stroke: #000000; stroke-width: 0.6"/>
      </g>
     </g>
    </g>
    <g id="ytick_20">
     <g id="line2d_54">
      <g>
       <use xlink:href="#m3cacefbeeb" x="50.651563" y="337.808371" style="stroke: #000000; stroke-width: 0.6"/>
      </g>
     </g>
    </g>
    <g id="ytick_21">
     <g id="line2d_55">
      <g>
       <use xlink:href="#m3cacefbeeb" x="50.651563" y="326.996138" style="stroke: #000000; stroke-width: 0.6"/>
      </g>
     </g>
    </g>
    <g id="ytick_22">
     <g id="line2d_56">
      <g>
       <use xlink:href="#m3cacefbeeb" x="50.651563" y="321.505918" style="stroke: #000000; stroke-width: 0.6"/>
      </g>
     </g>
    </g>
    <g id="ytick_23">
     <g id="line2d_57">
      <g>
       <use xlink:href="#m3cacefbeeb" x="50.651563" y="317.610544" style="stroke: #000000; stroke-width: 0.6"/>
      </g>
     </g>
    </g>
    <g id="ytick_24">
     <g id="line2d_58">
      <g>
       <use xlink:href="#m3cacefbeeb" x="50.651563" y="314.589058" style="stroke: #000000; stroke-width: 0.6"/>
      </g>
     </g>
    </g>
    <g id="ytick_25">
     <g id="line2d_59">
      <g>
       <use xlink:href="#m3cacefbeeb" x="50.651563" y="312.120324" style="stroke: #000000; stroke-width: 0.6"/>
      </g>
     </g>
    </g>
    <g id="ytick_26">
     <g id="line2d_60">
      <g>
       <use xlink:href="#m3cacefbeeb" x="50.651563" y="310.033039" style="stroke: #000000; stroke-width: 0.6"/>
      </g>
     </g>
    </g>
    <g id="ytick_27">
     <g id="line2d_61">
      <g>
       <use xlink:href="#m3cacefbeeb" x="50.651563" y="308.22495" style="stroke: #000000; stroke-width: 0.6"/>
      </g>
     </g>
    </g>
    <g id="ytick_28">
     <g id="line2d_62">
      <g>
       <use xlink:href="#m3cacefbeeb" x="50.651563" y="306.630103" style="stroke: #000000; stroke-width: 0.6"/>
      </g>
     </g>
    </g>
    <g id="ytick_29">
     <g id="line2d_63">
      <g>
       <use xlink:href="#m3cacefbeeb" x="50.651563" y="295.81787" style="stroke: #000000; stroke-width: 0.6"/>
      </g>
     </g>
    </g>
    <g id="ytick_30">
     <g id="line2d_64">
      <g>
       <use xlink:href="#m3cacefbeeb" x="50.651563" y="290.32765" style="stroke: #000000; stroke-width: 0.6"/>
      </g>
     </g>
    </g>
    <g id="ytick_31">
     <g id="line2d_65">
      <g>
       <use xlink:href="#m3cacefbeeb" x="50.651563" y="286.432276" style="stroke: #000000; stroke-width: 0.6"/>
      </g>
     </g>
    </g>
    <g id="ytick_32">
     <g id="line2d_66">
      <g>
       <use xlink:href="#m3cacefbeeb" x="50.651563" y="283.41079" style="stroke: #000000; stroke-width: 0.6"/>
      </g>
     </g>
    </g>
    <g id="ytick_33">
     <g id="line2d_67">
      <g>
       <use xlink:href="#m3cacefbeeb" x="50.651563" y="280.942056" style="stroke: #000000; stroke-width: 0.6"/>
      </g>
     </g>
    </g>
    <g id="ytick_34">
     <g id="line2d_68">
      <g>
       <use xlink:href="#m3cacefbeeb" x="50.651563" y="278.854771" style="stroke: #000000; stroke-width: 0.6"/>
      </g>
     </g>
    </g>
    <g id="ytick_35">
     <g id="line2d_69">
      <g>
       <use xlink:href="#m3cacefbeeb" x="50.651563" y="277.046682" style="stroke: #000000; stroke-width: 0.6"/>
      </g>
     </g>
    </g>
    <g id="ytick_36">
     <g id="line2d_70">
      <g>
       <use xlink:href="#m3cacefbeeb" x="50.651563" y="275.451835" style="stroke: #000000; stroke-width: 0.6"/>
      </g>
     </g>
    </g>
    <g id="ytick_37">
     <g id="line2d_71">
      <g>
       <use xlink:href="#m3cacefbeeb" x="50.651563" y="264.639602" style="stroke: #000000; stroke-width: 0.6"/>
      </g>
     </g>
    </g>
    <g id="text_31">
     <!-- Points per star -->
     <g style="fill: #2c241a" transform="translate(16.216875 356.303656) rotate(-90) scale(0.12 -0.12)">
      <defs>
       <path id="Inter-Regular-50" d="M 563 0 
L 563 4656 
L 2156 4656 
Q 2700 4656 3051 4457 
Q 3403 4259 3573 3925 
Q 3744 3591 3744 3175 
Q 3744 2759 3573 2421 
Q 3403 2084 3053 1884 
Q 2703 1684 2159 1684 
L 1031 1684 
L 1031 2206 
L 2131 2206 
Q 2500 2206 2725 2332 
Q 2950 2459 3051 2679 
Q 3153 2900 3153 3175 
Q 3153 3450 3051 3667 
Q 2950 3884 2723 4009 
Q 2497 4134 2125 4134 
L 1156 4134 
L 1156 0 
L 563 0 
z
" transform="scale(0.015625)"/>
      </defs>
      <use xlink:href="#Inter-Regular-50"/>
      <use xlink:href="#Inter-Regular-6f" transform="translate(63.867188 0)"/>
      <use xlink:href="#Inter-Regular-69" transform="translate(123.828125 0)"/>
      <use xlink:href="#Inter-Regular-6e" transform="translate(148.046875 0)"/>
      <use xlink:href="#Inter-Regular-74" transform="translate(207.128906 0)"/>
      <use xlink:href="#Inter-Regular-73" transform="translate(239.84375 0)"/>
      <use xlink:href="#Inter-Regular-20" transform="translate(292.626953 0)"/>
      <use xlink:href="#Inter-Regular-70" transform="translate(320.751953 0)"/>
      <use xlink:href="#Inter-Regular-65" transform="translate(381.982422 0)"/>
      <use xlink:href="#Inter-Regular-72" transform="translate(440.283203 0)"/>
      <use xlink:href="#Inter-Regular-20" transform="translate(477.929688 0)"/>
      <use xlink:href="#Inter-Regular-73" transform="translate(506.054688 0)"/>
      <use xlink:href="#Inter-Regular-74" transform="translate(558.837891 0)"/>
      <use xlink:href="#Inter-Regular-61" transform="translate(591.552734 0)"/>
      <use xlink:href="#Inter-Regular-72" transform="translate(647.705078 0)"/>
     </g>
    </g>
   </g>
   <g id="FillBetweenPolyCollection_1">
    <defs>
     <path id="mf224b261e0" d="M 159.375553 -93.176307 
L 159.375553 -87.99166 
L 176.613744 -87.046738 
L 194.426541 -88.99155 
L 212.239338 -88.078898 
L 229.477528 -87.681823 
L 247.290326 -87.700998 
L 264.528516 -87.866051 
L 282.341313 -88.566899 
L 300.15411 -88.566899 
L 316.817695 -87.046738 
L 334.630492 -87.23314 
L 351.868682 -87.23314 
L 369.681479 -87.180143 
L 386.91967 -87.57265 
L 404.732467 -87.691414 
L 422.545264 -88.99155 
L 439.783455 -87.57265 
L 457.596252 -87.691414 
L 474.834443 -88.251706 
L 492.64724 -87.472338 
L 510.460037 -87.57265 
L 526.549015 -89.037922 
L 544.361812 -88.282334 
L 561.600002 -89.604555 
L 579.412799 -88.839735 
L 596.65099 -88.780889 
L 614.463787 -89.221837 
L 632.276584 -89.521057 
L 649.514775 -89.037922 
L 667.327572 -89.084135 
L 684.565763 -89.184681 
L 702.37856 -89.014756 
L 720.191357 -89.037922 
L 736.280335 -89.267428 
L 736.280335 -122.860274 
L 736.280335 -122.860274 
L 720.191357 -122.54338 
L 702.37856 -122.443609 
L 684.565763 -122.678654 
L 667.327572 -122.621122 
L 649.514775 -122.087493 
L 632.276584 -121.798172 
L 614.463787 -121.54981 
L 596.65099 -121.258285 
L 579.412799 -119.909824 
L 561.600002 -119.863874 
L 544.361812 -119.705566 
L 526.549015 -119.103186 
L 510.460037 -119.908344 
L 492.64724 -119.57727 
L 474.834443 -120.491134 
L 457.596252 -119.911895 
L 439.783455 -118.122393 
L 422.545264 -117.367197 
L 404.732467 -106.656155 
L 386.91967 -106.440213 
L 369.681479 -104.733265 
L 351.868682 -105.080983 
L 334.630492 -105.080983 
L 316.817695 -105.11015 
L 300.15411 -105.17796 
L 282.341313 -104.62572 
L 264.528516 -100.609637 
L 247.290326 -98.491338 
L 229.477528 -96.618733 
L 212.239338 -96.229726 
L 194.426541 -96.246726 
L 176.613744 -94.510771 
L 159.375553 -93.176307 
z
" style="stroke: #4a78a8; stroke-opacity: 0.12"/>
    </defs>
    <g clip-path="url(#p3f34ab9c20)">
     <use xlink:href="#mf224b261e0" x="0" y="392.115469" style="fill: #4a78a8; fill-opacity: 0.12; stroke: #4a78a8; stroke-opacity: 0.12"/>
    </g>
   </g>
   <g id="patch_163">
    <path d="M 50.651563 367.56 
L 50.651563 262.804186 
" style="fill: none; stroke: #ded7c8; stroke-width: 0.8; stroke-linejoin: miter; stroke-linecap: square"/>
   </g>
   <g id="patch_164">
    <path d="M 50.651562 367.56 
L 776.051562 367.56 
" style="fill: none; stroke: #ded7c8; stroke-width: 0.8; stroke-linejoin: miter; stroke-linecap: square"/>
   </g>
   <g id="FillBetweenPolyCollection_2">
    <defs>
     <path id="m86c3370695" d="M 159.375553 -92.036242 
L 159.375553 -89.824731 
L 176.613744 -89.258322 
L 194.426541 -91.107339 
L 212.239338 -91.075517 
L 229.477528 -88.804458 
L 247.290326 -89.102577 
L 264.528516 -89.376225 
L 282.341313 -90.376784 
L 300.15411 -90.376784 
L 316.817695 -89.604555 
L 334.630492 -89.466225 
L 351.868682 -89.466225 
L 369.681479 -88.870235 
L 386.91967 -90.858735 
L 404.732467 -90.806024 
L 422.545264 -91.468024 
L 439.783455 -91.273192 
L 457.596252 -91.370959 
L 474.834443 -91.755113 
L 492.64724 -89.230968 
L 510.460037 -92.286183 
L 526.549015 -92.581573 
L 544.361812 -93.66978 
L 561.600002 -93.276112 
L 579.412799 -93.692777 
L 596.65099 -93.936758 
L 614.463787 -94.017118 
L 632.276584 -94.163744 
L 649.514775 -94.17642 
L 667.327572 -94.17642 
L 684.565763 -94.061911 
L 702.37856 -93.692777 
L 720.191357 -93.755003 
L 736.280335 -93.527647 
L 736.280335 -115.537217 
L 736.280335 -115.537217 
L 720.191357 -114.762722 
L 702.37856 -114.575847 
L 684.565763 -114.41907 
L 667.327572 -114.267642 
L 649.514775 -114.117407 
L 632.276584 -114.027775 
L 614.463787 -113.939754 
L 596.65099 -113.522008 
L 579.412799 -112.305479 
L 561.600002 -111.834059 
L 544.361812 -109.694517 
L 526.549015 -108.474163 
L 510.460037 -107.541457 
L 492.64724 -107.247916 
L 474.834443 -107.924349 
L 457.596252 -107.371597 
L 439.783455 -107.303292 
L 422.545264 -106.845116 
L 404.732467 -103.990671 
L 386.91967 -103.048796 
L 369.681479 -100.805172 
L 351.868682 -101.043778 
L 334.630492 -101.043778 
L 316.817695 -101.135025 
L 300.15411 -100.510801 
L 282.341313 -100.510801 
L 264.528516 -96.161512 
L 247.290326 -95.63438 
L 229.477528 -95.640067 
L 212.239338 -96.161512 
L 194.426541 -96.161512 
L 176.613744 -93.936758 
L 159.375553 -92.036242 
z
" style="stroke: #4a78a8; stroke-opacity: 0.28"/>
    </defs>
    <g clip-path="url(#p3f34ab9c20)">
     <use xlink:href="#m86c3370695" x="0" y="392.115469" style="fill: #4a78a8; fill-opacity: 0.28; stroke: #4a78a8; stroke-opacity: 0.28"/>
    </g>
   </g>
   <g id="line2d_72">
    <path d="M 159.375553 296.44133 
L 176.613744 296.44133 
L 194.426541 295.549732 
L 212.239338 295.549732 
L 229.477528 293.866672 
L 247.290326 291.407711 
L 264.528516 291.117545 
L 282.341313 280.762708 
L 300.15411 279.920873 
L 316.817695 279.307148 
L 334.630492 279.307148 
L 351.868682 279.307148 
L 369.681479 278.758396 
L 386.91967 278.758396 
L 404.732467 278.758396 
L 422.545264 274.40974 
L 439.783455 273.287396 
L 457.596252 268.891687 
L 474.834443 268.346723 
L 492.64724 268.27569 
L 510.460037 268.27569 
L 526.549015 268.27569 
L 544.361812 268.047374 
L 561.600002 267.219826 
L 579.412799 267.040802 
L 596.65099 267.040802 
L 614.463787 266.681827 
L 632.276584 266.156814 
L 649.514775 265.241811 
L 667.327572 264.899348 
L 684.565763 264.830509 
L 702.37856 264.816783 
L 720.191357 264.816783 
L 736.280335 264.816783 
" clip-path="url(#p3f34ab9c20)" style="fill: none; stroke-dasharray: 4.81,2.08; stroke-dashoffset: 0; stroke: #b85b3a; stroke-width: 1.3"/>
   </g>
   <g id="line2d_73">
    <path d="M 159.375553 302.181978 
L 176.613744 300.842276 
L 194.426541 299.445105 
L 212.239338 299.533896 
L 229.477528 300.079227 
L 247.290326 299.623273 
L 264.528516 299.623273 
L 282.341313 297.244509 
L 300.15411 297.244509 
L 316.817695 297.82079 
L 334.630492 297.703555 
L 351.868682 297.703555 
L 369.681479 297.664701 
L 386.91967 294.223023 
L 404.732467 293.548056 
L 422.545264 291.804532 
L 439.783455 291.779387 
L 457.596252 291.754289 
L 474.834443 291.754289 
L 492.64724 293.984417 
L 510.460037 293.925417 
L 526.549015 289.538657 
L 544.361812 289.160756 
L 561.600002 288.955281 
L 579.412799 288.732803 
L 596.65099 288.240365 
L 614.463787 288.240365 
L 632.276584 288.201733 
L 649.514775 287.934351 
L 667.327572 287.858916 
L 684.565763 287.972226 
L 702.37856 288.240365 
L 720.191357 288.124797 
L 736.280335 288.048297 
" clip-path="url(#p3f34ab9c20)" style="fill: none; stroke: #4a78a8; stroke-width: 2.2; stroke-linecap: square"/>
   </g>
   <g id="legend_2">
    <g id="patch_165">
     <path d="M 55.151563 283.082311 
L 364.449219 283.082311 
L 364.449219 267.304186 
L 55.151563 267.304186 
z
" style="fill: #f0ebdf; opacity: 0.8; stroke: #ded7c8; stroke-linejoin: miter"/>
    </g>
    <g id="patch_166">
     <path d="M 58.751563 277.54028 
L 76.751563 277.54028 
L 76.751563 271.24028 
L 58.751563 271.24028 
z
" style="fill: #4a78a8; fill-opacity: 0.12; stroke: #4a78a8; stroke-opacity: 0.12; stroke-linejoin: miter"/>
    </g>
    <g id="text_32">
     <!-- 2σ range -->
     <g style="fill: #2c241a" transform="translate(83.951563 277.54028) scale(0.09 -0.09)">
      <defs>
       <path id="Inter-Regular-3c3" d="M 1916 -75 
Q 1441 -75 1081 151 
Q 722 378 523 783 
Q 325 1188 325 1725 
Q 325 2263 525 2659 
Q 725 3056 1083 3275 
Q 1441 3494 1916 3494 
L 3866 3494 
L 3866 3016 
L 2334 3016 
L 1916 2991 
Q 1566 2991 1341 2819 
Q 1116 2647 1006 2359 
Q 897 2072 897 1725 
Q 897 1381 1006 1084 
Q 1116 788 1341 608 
Q 1566 428 1916 428 
Q 2269 428 2497 609 
Q 2725 791 2834 1086 
Q 2944 1381 2944 1725 
Q 2944 2072 2834 2359 
Q 2725 2647 2497 2819 
Q 2269 2991 1916 2991 
L 1916 3131 
Q 2272 3131 2565 3039 
Q 2859 2947 3070 2762 
Q 3281 2578 3397 2298 
Q 3513 2019 3513 1644 
Q 3513 1147 3313 758 
Q 3113 369 2753 147 
Q 2394 -75 1916 -75 
z
" transform="scale(0.015625)"/>
       <path id="Inter-Regular-67" d="M 1909 -1381 
Q 1522 -1381 1239 -1282 
Q 956 -1184 768 -1021 
Q 581 -859 472 -669 
L 928 -375 
Q 1003 -475 1114 -597 
Q 1225 -719 1414 -805 
Q 1603 -891 1909 -891 
Q 2328 -891 2598 -691 
Q 2869 -491 2869 -59 
L 2869 641 
L 2816 641 
Q 2756 541 2648 403 
Q 2541 266 2339 161 
Q 2138 56 1800 56 
Q 1381 56 1047 254 
Q 713 453 519 834 
Q 325 1216 325 1763 
Q 325 2303 515 2701 
Q 706 3100 1042 3319 
Q 1378 3538 1813 3538 
Q 2150 3538 2351 3427 
Q 2553 3316 2662 3172 
Q 2772 3028 2831 2934 
L 2884 2934 
L 2884 3494 
L 3431 3494 
L 3431 -91 
Q 3431 -541 3228 -827 
Q 3025 -1113 2679 -1247 
Q 2334 -1381 1909 -1381 
z
M 1894 556 
Q 2213 556 2431 701 
Q 2650 847 2762 1120 
Q 2875 1394 2875 1775 
Q 2875 2147 2764 2430 
Q 2653 2713 2434 2873 
Q 2216 3034 1894 3034 
Q 1563 3034 1341 2864 
Q 1119 2694 1008 2409 
Q 897 2125 897 1775 
Q 897 1416 1009 1141 
Q 1122 866 1344 711 
Q 1566 556 1894 556 
z
" transform="scale(0.015625)"/>
      </defs>
      <use xlink:href="#Inter-Regular-32"/>
      <use xlink:href="#Inter-Regular-3c3" transform="translate(60.986328 0)"/>
      <use xlink:href="#Inter-Regular-20" transform="translate(123.388672 0)"/>
      <use xlink:href="#Inter-Regular-72" transform="translate(151.513672 0)"/>
      <use xlink:href="#Inter-Regular-61" transform="translate(189.160156 0)"/>
      <use xlink:href="#Inter-Regular-6e" transform="translate(245.3125 0)"/>
      <use xlink:href="#Inter-Regular-67" transform="translate(304.394531 0)"/>
      <use xlink:href="#Inter-Regular-65" transform="translate(365.722656 0)"/>
     </g>
    </g>
    <g id="patch_167">
     <path d="M 140.112969 277.54028 
L 158.112969 277.54028 
L 158.112969 271.24028 
L 140.112969 271.24028 
z
" style="fill: #4a78a8; fill-opacity: 0.28; stroke: #4a78a8; stroke-opacity: 0.28; stroke-linejoin: miter"/>
    </g>
    <g id="text_33">
     <!-- 1σ range -->
     <g style="fill: #2c241a" transform="translate(165.312969 277.54028) scale(0.09 -0.09)">
      <use xlink:href="#Inter-Regular-31"/>
      <use xlink:href="#Inter-Regular-3c3" transform="translate(40.673828 0)"/>
      <use xlink:href="#Inter-Regular-20" transform="translate(103.076172 0)"/>
      <use xlink:href="#Inter-Regular-72" transform="translate(131.201172 0)"/>
      <use xlink:href="#Inter-Regular-61" transform="translate(168.847656 0)"/>
      <use xlink:href="#Inter-Regular-6e" transform="translate(225 0)"/>
      <use xlink:href="#Inter-Regular-67" transform="translate(284.082031 0)"/>
      <use xlink:href="#Inter-Regular-65" transform="translate(345.410156 0)"/>
     </g>
    </g>
    <g id="line2d_74">
     <path d="M 219.64625 274.39028 
L 228.64625 274.39028 
L 237.64625 274.39028 
" style="fill: none; stroke: #4a78a8; stroke-width: 2.2; stroke-linecap: square"/>
    </g>
    <g id="text_34">
     <!-- Median -->
     <g style="fill: #2c241a" transform="translate(244.84625 277.54028) scale(0.09 -0.09)">
      <use xlink:href="#Inter-Regular-4d"/>
      <use xlink:href="#Inter-Regular-65" transform="translate(90.332031 0)"/>
      <use xlink:href="#Inter-Regular-64" transform="translate(148.632812 0)"/>
      <use xlink:href="#Inter-Regular-69" transform="translate(209.863281 0)"/>
      <use xlink:href="#Inter-Regular-61" transform="translate(234.082031 0)"/>
      <use xlink:href="#Inter-Regular-6e" transform="translate(290.234375 0)"/>
     </g>
    </g>
    <g id="line2d_75">
     <path d="M 294.284375 274.39028 
L 303.284375 274.39028 
L 312.284375 274.39028 
" style="fill: none; stroke-dasharray: 4.81,2.08; stroke-dashoffset: 0; stroke: #b85b3a; stroke-width: 1.3"/>
    </g>
    <g id="text_35">
     <!-- Maximum -->
     <g style="fill: #2c241a" transform="translate(319.484375 277.54028) scale(0.09 -0.09)">
      <defs>
       <path id="Inter-Regular-78" d="M 203 0 
L 1581 2009 
L 1578 1578 
L 275 3494 
L 931 3494 
L 1366 2816 
Q 1534 2553 1657 2325 
Q 1781 2097 1913 1884 
L 1619 1884 
Q 1753 2097 1864 2325 
Q 1975 2553 2147 2816 
L 2591 3494 
L 3234 3494 
L 1925 1553 
L 1925 1969 
L 3291 0 
L 2638 0 
L 2125 784 
Q 1959 1041 1839 1261 
Q 1719 1481 1591 1684 
L 1888 1684 
Q 1759 1481 1650 1261 
Q 1541 1041 1372 784 
L 853 0 
L 203 0 
z
" transform="scale(0.015625)"/>
      </defs>
      <use xlink:href="#Inter-Regular-4d"/>
      <use xlink:href="#Inter-Regular-61" transform="translate(90.332031 0)"/>
      <use xlink:href="#Inter-Regular-78" transform="translate(146.484375 0)"/>
      <use xlink:href="#Inter-Regular-69" transform="translate(201.074219 0)"/>
      <use xlink:href="#Inter-Regular-6d" transform="translate(225.292969 0)"/>
      <use xlink:href="#Inter-Regular-75" transform="translate(312.890625 0)"/>
      <use xlink:href="#Inter-Regular-6d" transform="translate(372.021484 0)"/>
     </g>
    </g>
   </g>
  </g>
 </g>
 <defs>
  <clipPath id="p3cf2f437de">
   <rect x="50.651563" y="7.2" width="725.4" height="241.744186"/>
  </clipPath>
  <clipPath id="p3f34ab9c20">
   <rect x="50.651563" y="262.804186" width="725.4" height="104.755814"/>
  </clipPath>
 </defs>
</svg>
